<svg width="28" height="24" viewBox="0 0 28 24" fill="none" xmlns="http://www.w3.org/2000/svg">
<path d="M28.0001 3.29864C26.9712 3.75457 25.8659 4.06264 24.7039 4.20188C25.9028 3.48445 26.7999 2.3553 27.2275 1.02512C26.101 1.69422 24.8682 2.1652 23.5825 2.41757C22.7179 1.49445 21.5728 0.882581 20.3248 0.676977C19.0769 0.471372 17.7959 0.683529 16.6809 1.28051C15.5659 1.87749 14.6792 2.8259 14.1584 3.97848C13.6376 5.13106 13.5119 6.42333 13.8008 7.65467C11.5183 7.54006 9.28539 6.94679 7.24699 5.91337C5.20858 4.87994 3.41025 3.42945 1.96871 1.65604C1.4758 2.50629 1.19238 3.4921 1.19238 4.54198C1.19183 5.48712 1.42458 6.41778 1.86998 7.25139C2.31537 8.085 2.95964 8.79578 3.74562 9.32068C2.83409 9.29167 1.94267 9.04537 1.14556 8.60227V8.67621C1.14547 10.0018 1.604 11.2866 2.44335 12.3126C3.2827 13.3386 4.45118 14.0426 5.7505 14.3052C4.90491 14.534 4.01837 14.5677 3.15783 14.4037C3.52443 15.5443 4.23852 16.5417 5.20014 17.2563C6.16176 17.9709 7.32276 18.3669 8.52062 18.3889C6.48719 19.9851 3.97591 20.851 1.39078 20.8472C0.932848 20.8473 0.475305 20.8206 0.0205078 20.7671C2.64457 22.4543 5.69917 23.3497 8.81882 23.3462C19.3793 23.3462 25.1524 14.5997 25.1524 7.01389C25.1524 6.76744 25.1462 6.51852 25.1351 6.27207C26.2581 5.45998 27.2274 4.45437 27.9977 3.30233L28.0001 3.29864Z" fill="white"/>
</svg>
