<svg width="28" height="20" viewBox="0 0 28 20" fill="none" xmlns="http://www.w3.org/2000/svg">
<path d="M27.4169 3.59151C27.2584 3.02594 26.9495 2.51391 26.5232 2.10984C26.0849 1.69334 25.5477 1.39542 24.9622 1.24417C22.7712 0.666674 13.9932 0.666674 13.9932 0.666674C10.3338 0.625039 6.67523 0.808161 3.03823 1.21501C2.45279 1.37742 1.91656 1.68201 1.47723 2.10167C1.04557 2.51701 0.732898 3.02917 0.569565 3.59034C0.177207 5.70404 -0.0134275 7.85024 0.000231766 10C-0.0137682 12.1478 0.176398 14.2933 0.569565 16.4097C0.729398 16.9685 1.0409 17.4783 1.47373 17.8902C1.90657 18.302 2.44557 18.5995 3.03823 18.757C5.2584 19.3333 13.9932 19.3333 13.9932 19.3333C17.6573 19.375 21.3206 19.1919 24.9622 18.785C25.5477 18.6338 26.0849 18.3358 26.5232 17.9193C26.9549 17.5075 27.2617 16.9953 27.4157 16.4377C27.8183 14.3248 28.0141 12.1777 28.0002 10.0268C28.0305 7.86688 27.835 5.70967 27.4169 3.59034V3.59151ZM11.2026 13.9947V6.00651L18.5059 10.0012L11.2026 13.9947Z" fill="white"/>
</svg>
