<svg width="1920" height="362" viewBox="0 0 1920 362" fill="none" xmlns="http://www.w3.org/2000/svg">
<rect width="1920" height="362" fill="url(#paint0_linear_53_207)"/>
<g opacity="0.1">
<mask id="mask0_53_207" style="mask-type:alpha" maskUnits="userSpaceOnUse" x="0" y="0" width="1920" height="362">
<rect width="1920" height="362" fill="url(#paint1_linear_53_207)"/>
</mask>
<g mask="url(#mask0_53_207)">
<path d="M-12.373 -349.942C-12.373 -349.942 262.056 215.959 1058.44 26.1003C1930.49 -181.789 2123.72 431.54 2123.72 431.54" stroke="white" stroke-width="2" stroke-miterlimit="10"/>
<path d="M-12.373 -262.24C22.4207 -249.991 316.207 228.061 1065.06 44.4733C1881.97 -155.332 2093.87 392.098 2119.36 434.455" stroke="white" stroke-width="1.9" stroke-miterlimit="10"/>
<path d="M-12.373 -174.537C57.2144 -150.039 370.383 240.139 1071.67 62.8474C1833.48 -128.873 2064.03 352.633 2114.99 437.42" stroke="white" stroke-width="1.8" stroke-miterlimit="10"/>
<path d="M-12.373 -86.8352C92.0082 -50.0884 424.533 252.24 1078.29 81.2204C1784.99 -102.416 2034.18 313.191 2110.63 440.36" stroke="white" stroke-width="1.7" stroke-miterlimit="10"/>
<path d="M-12.373 0.868164C126.802 49.864 478.709 264.343 1084.9 99.5947C1736.5 -75.9572 2004.36 273.775 2106.3 443.276" stroke="white" stroke-width="1.6" stroke-miterlimit="10"/>
<path d="M-12.373 88.5697C161.596 149.814 532.859 276.42 1091.52 117.967C1688.01 -49.5005 1974.52 234.332 2101.93 446.239" stroke="white" stroke-width="1.5" stroke-miterlimit="10"/>
<path d="M-12.373 176.273C196.389 249.766 587.01 288.522 1098.14 136.365C1639.52 -23.0178 1944.68 194.915 2097.57 449.179" stroke="white" stroke-width="1.4" stroke-miterlimit="10"/>
<path d="M-12.373 263.975C231.183 349.717 641.186 300.623 1104.75 154.714C1591.01 3.41489 1914.83 155.424 2093.21 452.118" stroke="white" stroke-width="1.3" stroke-miterlimit="10"/>
<path d="M-12.373 351.677C265.977 449.669 695.336 312.701 1111.37 173.088C1542.51 29.873 1884.99 116.008 2088.85 455.058" stroke="white" stroke-width="1.2" stroke-miterlimit="10"/>
<path d="M-12.373 439.38C300.771 549.621 749.512 324.803 1117.98 191.486C1494.02 56.3311 1855.17 76.5663 2084.51 457.999" stroke="white" stroke-width="1.1" stroke-miterlimit="10"/>
<path d="M-12.373 527.082C335.564 649.572 803.663 336.881 1124.6 209.835C1445.53 82.7884 1825.32 37.1244 2080.15 460.938" stroke="white" stroke-miterlimit="10"/>
<g opacity="0.0667">
<path d="M-42.3833 197.707C-19.457 201.166 283.847 693.89 1010.18 311.475C1739.62 -72.5741 2009.61 419.477 2030.79 443.408" stroke="white" stroke-miterlimit="10"/>
</g>
<g opacity="0.1333">
<path d="M-30.8237 253.882C15.0048 260.802 322.947 690.574 1016.67 322.407C1713.26 -47.2496 1988.23 401.384 2030.59 449.246" stroke="white" stroke-miterlimit="10"/>
</g>
<g opacity="0.2">
<path d="M-19.2646 310.033C49.4901 320.413 362.047 687.211 1023.14 333.34C1686.87 -21.9251 1966.84 383.292 2030.38 455.109" stroke="white" stroke-miterlimit="10"/>
</g>
<g opacity="0.2667">
<path d="M-7.70557 366.209C83.9515 380.072 401.146 683.895 1029.6 344.272C1660.51 3.3754 1945.43 365.199 2030.19 460.947" stroke="white" stroke-miterlimit="10"/>
</g>
<g opacity="0.3333">
<path d="M3.854 422.384C118.437 439.707 440.246 680.555 1036.09 355.204C1634.14 28.7001 1924.06 347.131 2029.99 466.786" stroke="white" stroke-miterlimit="10"/>
</g>
<g opacity="0.4">
<path d="M15.4131 478.559C152.899 499.343 479.346 677.239 1042.55 366.161C1607.76 54.0487 1902.65 329.063 2029.78 472.673" stroke="white" stroke-miterlimit="10"/>
</g>
<g opacity="0.4667">
<path d="M26.9727 534.711C187.384 558.954 518.446 673.875 1049.02 377.069C1581.37 79.3251 1881.26 310.946 2029.56 478.487" stroke="white" stroke-miterlimit="10"/>
</g>
<g opacity="0.5333">
<path d="M38.5317 590.886C221.846 618.589 557.545 670.56 1055.51 388.025C1555.03 104.674 1859.87 292.878 2029.37 484.35" stroke="white" stroke-miterlimit="10"/>
</g>
<g opacity="0.6">
<path d="M50.0669 647.061C256.307 678.224 596.621 667.244 1061.95 398.958C1528.62 129.998 1838.46 274.786 2029.13 490.188" stroke="white" stroke-miterlimit="10"/>
</g>
<g opacity="0.6667">
<path d="M61.626 703.213C290.769 737.836 635.696 663.88 1068.44 409.866C1502.26 155.299 1817.07 256.693 2028.94 496.027" stroke="white" stroke-miterlimit="10"/>
</g>
<g opacity="0.7333">
<path d="M73.1855 759.388C325.254 797.495 674.82 660.564 1074.9 420.822C1475.87 180.623 1795.68 238.625 2028.72 501.89" stroke="white" stroke-miterlimit="10"/>
</g>
<g opacity="0.8">
<path d="M84.7446 815.563C359.716 857.13 713.895 657.225 1081.36 431.754C1449.51 205.948 1774.3 220.532 2028.5 507.728" stroke="white" stroke-miterlimit="10"/>
</g>
<g opacity="0.8667">
<path d="M96.3042 871.715C394.202 916.741 752.995 653.885 1087.85 442.663C1423.14 231.224 1752.91 202.416 2028.31 513.567" stroke="white" stroke-miterlimit="10"/>
</g>
<g opacity="0.9333">
<path d="M107.863 927.89C428.663 976.377 792.095 650.545 1094.32 453.619C1396.76 256.573 1731.52 184.347 2028.12 519.429" stroke="white" stroke-miterlimit="10"/>
</g>
<path d="M119.422 984.065C463.148 1036.01 831.194 647.229 1100.78 464.551C1370.37 281.873 1710.11 166.279 2027.9 525.268" stroke="white" stroke-miterlimit="10"/>
</g>
</g>
<defs>
<linearGradient id="paint0_linear_53_207" x1="0" y1="181" x2="1920" y2="181" gradientUnits="userSpaceOnUse">
<stop stop-color="#16A085"/>
<stop offset="1" stop-color="#F4D03F"/>
</linearGradient>
<linearGradient id="paint1_linear_53_207" x1="0" y1="0" x2="131.818" y2="699.147" gradientUnits="userSpaceOnUse">
<stop stop-color="#4EBEFF"/>
<stop offset="1" stop-color="#0679BB"/>
</linearGradient>
</defs>
</svg>
