<svg width="118" height="201" viewBox="0 0 118 201" fill="none" xmlns="http://www.w3.org/2000/svg">
<path opacity="0.7" d="M108.306 81.4195C108.306 78.9361 110.32 76.9224 112.809 76.9224C115.293 76.9224 117.312 78.9361 117.312 81.4195C117.312 83.9088 115.299 85.9225 112.809 85.9225C110.32 85.9225 108.306 83.9029 108.306 81.4195Z" fill="white"/>
<path opacity="0.7" d="M66.7517 81.4195C66.7517 78.9361 68.7655 76.9224 71.2548 76.9224C73.7441 76.9224 75.7578 78.9361 75.7578 81.4195C75.7578 83.9088 73.7441 85.9225 71.2548 85.9225C68.7655 85.9225 66.7517 83.9029 66.7517 81.4195Z" fill="white"/>
<path opacity="0.7" d="M25.1965 81.4195C25.1965 78.9361 27.2103 76.9224 29.6996 76.9224C32.1889 76.9224 34.2026 78.9361 34.2026 81.4195C34.2026 83.9088 32.1889 85.9225 29.6996 85.9225C27.2103 85.9225 25.1965 83.9029 25.1965 81.4195Z" fill="white"/>
<path opacity="0.7" d="M108.306 119.546C108.306 117.062 110.32 115.049 112.809 115.049C115.293 115.049 117.312 117.062 117.312 119.546C117.312 122.035 115.299 124.049 112.809 124.049C110.32 124.049 108.306 122.035 108.306 119.546Z" fill="white"/>
<path opacity="0.7" d="M66.7517 119.546C66.7517 117.062 68.7655 115.049 71.2548 115.049C73.7441 115.049 75.7578 117.062 75.7578 119.546C75.7578 122.035 73.7441 124.049 71.2548 124.049C68.7655 124.049 66.7517 122.035 66.7517 119.546Z" fill="white"/>
<path opacity="0.7" d="M25.1965 119.546C25.1965 117.062 27.2103 115.049 29.6996 115.049C32.1889 115.049 34.2026 117.062 34.2026 119.546C34.2026 122.035 32.1889 124.049 29.6996 124.049C27.2103 124.049 25.1965 122.035 25.1965 119.546Z" fill="white"/>
<path opacity="0.7" d="M108.306 157.678C108.306 155.194 110.32 153.175 112.809 153.175C115.293 153.175 117.312 155.189 117.312 157.678C117.312 160.167 115.299 162.181 112.809 162.181C110.32 162.181 108.306 160.167 108.306 157.678Z" fill="white"/>
<path opacity="0.7" d="M108.301 5.19049C108.301 2.70706 110.314 0.693359 112.804 0.693359C115.287 0.693359 117.307 2.70706 117.307 5.19049C117.307 7.67979 115.293 9.69363 112.804 9.69363C110.32 9.69363 108.301 7.67979 108.301 5.19049Z" fill="white"/>
<path opacity="0.7" d="M66.7517 5.19049C66.7517 2.70706 68.7655 0.693359 71.2548 0.693359C73.7441 0.693359 75.7578 2.70706 75.7578 5.19049C75.7578 7.67979 73.7441 9.69363 71.2548 9.69363C68.7655 9.69363 66.7517 7.67979 66.7517 5.19049Z" fill="white"/>
<path opacity="0.7" d="M25.1965 5.19049C25.1965 2.70706 27.2103 0.693359 29.6996 0.693359C32.1889 0.693359 34.2026 2.70706 34.2026 5.19049C34.2026 7.67979 32.1889 9.69363 29.6996 9.69363C27.2103 9.69363 25.1965 7.67979 25.1965 5.19049Z" fill="white"/>
<path opacity="0.7" d="M108.306 43.3227C108.306 40.8393 110.32 38.8254 112.809 38.8254C115.293 38.8254 117.312 40.8393 117.312 43.3227C117.312 45.812 115.299 47.8257 112.809 47.8257C110.32 47.8257 108.306 45.8061 108.306 43.3227Z" fill="white"/>
<path opacity="0.7" d="M66.7517 43.3227C66.7517 40.8393 68.7655 38.8254 71.2548 38.8254C73.7441 38.8254 75.7578 40.8393 75.7578 43.3227C75.7578 45.812 73.7441 47.8257 71.2548 47.8257C68.7655 47.8257 66.7517 45.8061 66.7517 43.3227Z" fill="white"/>
<path opacity="0.7" d="M25.1965 43.3227C25.1965 40.8393 27.2103 38.8254 29.6996 38.8254C32.1889 38.8254 34.2026 40.8393 34.2026 43.3227C34.2026 45.812 32.1889 47.8257 29.6996 47.8257C27.2103 47.8257 25.1965 45.8061 25.1965 43.3227Z" fill="white"/>
<path opacity="0.7" d="M66.7517 157.678C66.7517 155.194 68.7655 153.175 71.2548 153.175C73.7441 153.175 75.7578 155.189 75.7578 157.678C75.7578 160.167 73.7441 162.181 71.2548 162.181C68.7655 162.181 66.7517 160.167 66.7517 157.678Z" fill="white"/>
<path opacity="0.7" d="M25.1965 157.678C25.1965 155.194 27.2103 153.175 29.6996 153.175C32.1889 153.175 34.2026 155.189 34.2026 157.678C34.2026 160.167 32.1889 162.181 29.6996 162.181C27.2103 162.181 25.1965 160.167 25.1965 157.678Z" fill="white"/>
<path opacity="0.7" d="M108.306 195.81C108.306 193.326 110.32 191.307 112.809 191.307C115.293 191.307 117.312 193.321 117.312 195.81C117.312 198.299 115.299 200.313 112.809 200.313C110.32 200.307 108.306 198.293 108.306 195.81Z" fill="white"/>
<path opacity="0.7" d="M66.7517 195.81C66.7517 193.326 68.7655 191.307 71.2548 191.307C73.7441 191.307 75.7578 193.321 75.7578 195.81C75.7578 198.299 73.7441 200.313 71.2548 200.313C68.7655 200.307 66.7517 198.293 66.7517 195.81Z" fill="white"/>
<path opacity="0.7" d="M25.1965 195.81C25.1965 193.326 27.2103 191.307 29.6996 191.307C32.1889 191.307 34.2026 193.321 34.2026 195.81C34.2026 198.299 32.1889 200.313 29.6996 200.313C27.2103 200.307 25.1965 198.293 25.1965 195.81Z" fill="white"/>
</svg>
