<svg width="45" height="206" viewBox="0 0 45 206" fill="none" xmlns="http://www.w3.org/2000/svg">
<path opacity="0.7" d="M4.27558 87.5304C1.91399 87.5304 0.000126549 85.6167 0.000126652 83.2551C0.000126755 80.8935 1.91399 78.9796 4.27558 78.9796C6.63717 78.9796 8.55103 80.8935 8.55103 83.2551C8.55103 85.6167 6.63717 87.5304 4.27558 87.5304Z" fill="#FFC700"/>
<path opacity="0.7" d="M4.27558 127.02C1.91399 127.02 0.000126549 125.106 0.000126652 122.745C0.000126755 120.383 1.91399 118.469 4.27558 118.469C6.63717 118.469 8.55103 120.383 8.55103 122.745C8.55103 125.106 6.63717 127.02 4.27558 127.02Z" fill="#FFC700"/>
<path opacity="0.7" d="M4.27558 166.51C1.91399 166.51 0.000126549 164.596 0.000126652 162.235C0.000126755 159.873 1.91399 157.959 4.27558 157.959C6.63717 157.959 8.55103 159.873 8.55103 162.235C8.55103 164.596 6.63717 166.51 4.27558 166.51Z" fill="#FFC700"/>
<path opacity="0.7" d="M4.27558 206C1.91399 206 0.000126549 204.086 0.000126652 201.724C0.000126755 199.363 1.91399 197.449 4.27558 197.449C6.63717 197.449 8.55103 199.363 8.55103 201.724C8.55103 204.086 6.63717 206 4.27558 206Z" fill="#FFC700"/>
<path opacity="0.7" d="M40.5083 87.5304C38.1467 87.5304 36.2329 85.6167 36.2329 83.2551C36.2329 80.8935 38.1467 78.9796 40.5083 78.9796C42.8699 78.9796 44.7837 80.8935 44.7837 83.2551C44.7909 85.6167 42.8771 87.5304 40.5083 87.5304Z" fill="#FFC700"/>
<path opacity="0.7" d="M40.5083 127.02C38.1467 127.02 36.2329 125.106 36.2329 122.745C36.2329 120.383 38.1467 118.469 40.5083 118.469C42.8699 118.469 44.7837 120.383 44.7837 122.745C44.7909 125.106 42.8771 127.02 40.5083 127.02Z" fill="#FFC700"/>
<path opacity="0.7" d="M40.5083 166.51C38.1467 166.51 36.2329 164.596 36.2329 162.235C36.2329 159.873 38.1467 157.959 40.5083 157.959C42.8699 157.959 44.7837 159.873 44.7837 162.235C44.7909 164.596 42.8771 166.51 40.5083 166.51Z" fill="#FFC700"/>
<path opacity="0.7" d="M40.5083 206C38.1467 206 36.2329 204.086 36.2329 201.724C36.2329 199.363 38.1467 197.449 40.5083 197.449C42.8699 197.449 44.7837 199.363 44.7837 201.724C44.7909 204.086 42.8771 206 40.5083 206Z" fill="#FFC700"/>
<path opacity="0.7" d="M4.27558 8.55081C1.91399 8.55081 0.000126549 6.63704 0.000126652 4.27545C0.000126755 1.91386 1.91399 -2.90114e-07 4.27558 -1.86886e-07C6.63717 -8.36574e-08 8.55103 1.91386 8.55103 4.27545C8.55103 6.63704 6.63717 8.55081 4.27558 8.55081Z" fill="#FFC700"/>
<path opacity="0.7" d="M4.27558 48.0408C1.91399 48.0408 0.000126549 46.1269 0.000126652 43.7654C0.000126755 41.4038 1.91399 39.49 4.27558 39.49C6.63717 39.49 8.55103 41.4038 8.55103 43.7654C8.55103 46.1269 6.63717 48.0408 4.27558 48.0408Z" fill="#FFC700"/>
<path opacity="0.7" d="M40.5083 8.55081C38.1467 8.55081 36.2329 6.63704 36.2329 4.27545C36.2329 1.91386 38.1467 -2.9011e-07 40.5083 -1.86882e-07C42.8699 -8.36536e-08 44.7837 1.91386 44.7837 4.27545C44.7837 6.63704 42.8771 8.55081 40.5083 8.55081Z" fill="#FFC700"/>
<path opacity="0.7" d="M40.5083 48.0408C38.1467 48.0408 36.2329 46.1269 36.2329 43.7654C36.2329 41.4038 38.1467 39.49 40.5083 39.49C42.8699 39.49 44.7837 41.4038 44.7837 43.7654C44.7837 46.1269 42.8771 48.0408 40.5083 48.0408Z" fill="#FFC700"/>
</svg>
