<svg width="173" height="17" viewBox="0 0 173 17" fill="none" xmlns="http://www.w3.org/2000/svg">
<path d="M90.66 3.878V14H88.77V9.576H84.017V14H82.127V3.878H84.017V8.232H88.77V3.878H90.66ZM97.8041 14H95.9141V3.878H97.8041V14ZM95.7391 0.973C95.8324 0.973 95.9118 0.975333 95.9771 0.979999C96.0471 0.984666 96.1078 0.998666 96.1591 1.022C96.2151 1.04067 96.2664 1.06867 96.3131 1.106C96.3598 1.14333 96.4088 1.19467 96.4601 1.26L97.9861 3.157H96.7331C96.5978 3.157 96.4904 3.15 96.4111 3.136C96.3364 3.11733 96.2524 3.06833 96.1591 2.989L93.9261 0.973H95.7391ZM111.603 3.878V14H110.637C110.488 14 110.362 13.9767 110.259 13.93C110.161 13.8787 110.066 13.7947 109.972 13.678L104.687 6.93C104.715 7.238 104.729 7.52267 104.729 7.784V14H103.07V3.878H104.057C104.137 3.878 104.204 3.88267 104.26 3.892C104.321 3.89667 104.372 3.91067 104.414 3.934C104.461 3.95267 104.505 3.983 104.547 4.025C104.589 4.06233 104.636 4.11367 104.687 4.179L109.993 10.955C109.979 10.7917 109.968 10.6307 109.958 10.472C109.949 10.3133 109.944 10.1663 109.944 10.031V3.878H111.603ZM125.39 3.878V14H123.5V9.576H118.747V14H116.857V3.878H118.747V8.232H123.5V3.878H125.39ZM141.932 10.178L140.7 6.811C140.639 6.66167 140.576 6.48433 140.511 6.279C140.446 6.07367 140.38 5.852 140.315 5.614C140.254 5.852 140.191 6.076 140.126 6.286C140.061 6.49133 139.998 6.671 139.937 6.825L138.712 10.178H141.932ZM145.257 14H143.801C143.638 14 143.505 13.9603 143.402 13.881C143.299 13.797 143.222 13.6943 143.171 13.573L142.415 11.508H138.222L137.466 13.573C137.429 13.6803 137.356 13.7783 137.249 13.867C137.142 13.9557 137.009 14 136.85 14H135.38L139.363 3.878H141.281L145.257 14ZM138.768 1.47C138.917 1.358 139.127 1.267 139.398 1.197C139.673 1.12233 139.963 1.085 140.266 1.085C140.747 1.085 141.113 1.17367 141.365 1.351C141.622 1.52833 141.75 1.757 141.75 2.037C141.75 2.163 141.724 2.275 141.673 2.373C141.626 2.471 141.561 2.55967 141.477 2.639C141.393 2.71367 141.293 2.779 141.176 2.835C141.064 2.88633 140.943 2.93067 140.812 2.968L140.693 3.332H139.867V2.555C140.11 2.52233 140.282 2.47567 140.385 2.415C140.488 2.34967 140.539 2.27733 140.539 2.198C140.539 2.10933 140.492 2.037 140.399 1.981C140.31 1.925 140.191 1.897 140.042 1.897C139.953 1.897 139.872 1.90633 139.797 1.925C139.727 1.94367 139.662 1.967 139.601 1.995C139.545 2.01833 139.491 2.03933 139.44 2.058C139.393 2.07667 139.349 2.086 139.307 2.086C139.256 2.086 139.214 2.072 139.181 2.044C139.153 2.016 139.123 1.97633 139.09 1.925L138.768 1.47ZM157.838 3.878V14H156.872C156.722 14 156.596 13.9767 156.494 13.93C156.396 13.8787 156.3 13.7947 156.207 13.678L150.922 6.93C150.95 7.238 150.964 7.52267 150.964 7.784V14H149.305V3.878H150.292C150.371 3.878 150.439 3.88267 150.495 3.892C150.555 3.89667 150.607 3.91067 150.649 3.934C150.695 3.95267 150.74 3.983 150.782 4.025C150.824 4.06233 150.87 4.11367 150.922 4.179L156.228 10.955C156.214 10.7917 156.202 10.6307 156.193 10.472C156.183 10.3133 156.179 10.1663 156.179 10.031V3.878H157.838ZM171.625 3.878V14H169.735V9.576H164.982V14H163.092V3.878H164.982V8.232H169.735V3.878H171.625Z" fill="url(#paint0_linear_1_12504)"/>
<rect y="8" width="69" height="1" rx="0.5" fill="url(#paint1_linear_1_12504)"/>
<defs>
<linearGradient id="paint0_linear_1_12504" x1="81" y1="0" x2="87.0752" y2="32.8774" gradientUnits="userSpaceOnUse">
<stop stop-color="#3EED8B"/>
<stop offset="1" stop-color="#0A9949"/>
</linearGradient>
<linearGradient id="paint1_linear_1_12504" x1="0" y1="8" x2="0.0289794" y2="9.99958" gradientUnits="userSpaceOnUse">
<stop stop-color="#3EED8B"/>
<stop offset="1" stop-color="#0A9949"/>
</linearGradient>
</defs>
</svg>
