<svg width="107" height="200" viewBox="0 0 107 200" fill="none" xmlns="http://www.w3.org/2000/svg">
<path opacity="0.7" d="M97.9939 80.732C97.9939 78.2486 100.008 76.2349 102.497 76.2349C104.98 76.2349 107 78.2486 107 80.732C107 83.2213 104.986 85.235 102.497 85.235C100.008 85.235 97.9939 83.2154 97.9939 80.732Z" fill="#FFC700"/>
<path opacity="0.7" d="M56.4392 80.732C56.4392 78.2486 58.453 76.2349 60.9423 76.2349C63.4316 76.2349 65.4453 78.2486 65.4453 80.732C65.4453 83.2213 63.4316 85.235 60.9423 85.235C58.453 85.235 56.4392 83.2154 56.4392 80.732Z" fill="#FFC700"/>
<path opacity="0.7" d="M14.884 80.732C14.884 78.2486 16.8978 76.2349 19.3871 76.2349C21.8764 76.2349 23.8901 78.2486 23.8901 80.732C23.8901 83.2213 21.8764 85.235 19.3871 85.235C16.8978 85.235 14.884 83.2154 14.884 80.732Z" fill="#FFC700"/>
<path opacity="0.7" d="M97.9939 118.858C97.9939 116.375 100.008 114.361 102.497 114.361C104.98 114.361 107 116.375 107 118.858C107 121.348 104.986 123.361 102.497 123.361C100.008 123.361 97.9939 121.348 97.9939 118.858Z" fill="#FFC700"/>
<path opacity="0.7" d="M56.4392 118.858C56.4392 116.375 58.453 114.361 60.9423 114.361C63.4316 114.361 65.4453 116.375 65.4453 118.858C65.4453 121.348 63.4316 123.361 60.9423 123.361C58.453 123.361 56.4392 121.348 56.4392 118.858Z" fill="#FFC700"/>
<path opacity="0.7" d="M14.884 118.858C14.884 116.375 16.8978 114.361 19.3871 114.361C21.8764 114.361 23.8901 116.375 23.8901 118.858C23.8901 121.348 21.8764 123.361 19.3871 123.361C16.8978 123.361 14.884 121.348 14.884 118.858Z" fill="#FFC700"/>
<path opacity="0.7" d="M97.9939 156.99C97.9939 154.507 100.008 152.487 102.497 152.487C104.98 152.487 107 154.501 107 156.99C107 159.48 104.986 161.493 102.497 161.493C100.008 161.493 97.9939 159.48 97.9939 156.99Z" fill="#FFC700"/>
<path opacity="0.7" d="M97.988 4.50299C97.988 2.01956 100.002 0.00585907 102.491 0.00585918C104.974 0.00585929 106.994 2.01956 106.994 4.50299C106.994 6.99229 104.98 9.00613 102.491 9.00613C100.008 9.00613 97.988 6.99229 97.988 4.50299Z" fill="#FFC700"/>
<path opacity="0.7" d="M56.4392 4.50299C56.4392 2.01956 58.453 0.00585907 60.9423 0.00585918C63.4316 0.00585929 65.4453 2.01956 65.4453 4.50299C65.4453 6.99229 63.4316 9.00613 60.9423 9.00613C58.453 9.00613 56.4392 6.99229 56.4392 4.50299Z" fill="#FFC700"/>
<path opacity="0.7" d="M14.884 4.50299C14.884 2.01956 16.8978 0.00585907 19.3871 0.00585918C21.8764 0.00585929 23.8901 2.01956 23.8901 4.50299C23.8901 6.99229 21.8764 9.00613 19.3871 9.00613C16.8978 9.00613 14.884 6.99229 14.884 4.50299Z" fill="#FFC700"/>
<path opacity="0.7" d="M97.9939 42.6352C97.9939 40.1518 100.008 38.1379 102.497 38.1379C104.98 38.1379 107 40.1518 107 42.6352C107 45.1245 104.986 47.1382 102.497 47.1382C100.008 47.1382 97.9939 45.1186 97.9939 42.6352Z" fill="#FFC700"/>
<path opacity="0.7" d="M56.4392 42.6352C56.4392 40.1518 58.453 38.1379 60.9423 38.1379C63.4316 38.1379 65.4453 40.1518 65.4453 42.6352C65.4453 45.1245 63.4316 47.1382 60.9423 47.1382C58.453 47.1382 56.4392 45.1186 56.4392 42.6352Z" fill="#FFC700"/>
<path opacity="0.7" d="M14.884 42.6352C14.884 40.1518 16.8978 38.1379 19.3871 38.1379C21.8764 38.1379 23.8901 40.1518 23.8901 42.6352C23.8901 45.1245 21.8764 47.1382 19.3871 47.1382C16.8978 47.1382 14.884 45.1186 14.884 42.6352Z" fill="#FFC700"/>
<path opacity="0.7" d="M56.4392 156.99C56.4392 154.507 58.453 152.487 60.9423 152.487C63.4316 152.487 65.4453 154.501 65.4453 156.99C65.4453 159.48 63.4316 161.493 60.9423 161.493C58.453 161.493 56.4392 159.48 56.4392 156.99Z" fill="#FFC700"/>
<path opacity="0.7" d="M14.884 156.99C14.884 154.507 16.8978 152.487 19.3871 152.487C21.8764 152.487 23.8901 154.501 23.8901 156.99C23.8901 159.48 21.8764 161.493 19.3871 161.493C16.8978 161.493 14.884 159.48 14.884 156.99Z" fill="#FFC700"/>
<path opacity="0.7" d="M97.9939 195.123C97.9939 192.639 100.008 190.619 102.497 190.619C104.98 190.619 107 192.633 107 195.123C107 197.612 104.986 199.626 102.497 199.626C100.008 199.62 97.9939 197.606 97.9939 195.123Z" fill="#FFC700"/>
<path opacity="0.7" d="M56.4392 195.123C56.4392 192.639 58.453 190.619 60.9423 190.619C63.4316 190.619 65.4453 192.633 65.4453 195.123C65.4453 197.612 63.4316 199.626 60.9423 199.626C58.453 199.62 56.4392 197.606 56.4392 195.123Z" fill="#FFC700"/>
<path opacity="0.7" d="M14.884 195.123C14.884 192.639 16.8978 190.619 19.3871 190.619C21.8764 190.619 23.8901 192.633 23.8901 195.123C23.8901 197.612 21.8764 199.626 19.3871 199.626C16.8978 199.62 14.884 197.606 14.884 195.123Z" fill="#FFC700"/>
</svg>
