<svg width="162" height="18" viewBox="0 0 162 18" fill="none" xmlns="http://www.w3.org/2000/svg">
<path d="M93.222 3.856C93.25 3.95867 93.2733 4.08 93.292 4.22C93.3107 4.36 93.32 4.50467 93.32 4.654C93.32 5.00867 93.2593 5.34 93.138 5.648C93.0167 5.956 92.8347 6.22433 92.592 6.453C92.3493 6.677 92.0437 6.85667 91.675 6.992C91.311 7.12267 90.884 7.19033 90.394 7.195V10.94C90.394 11.542 90.296 12.0997 90.1 12.613C89.9087 13.1217 89.631 13.5627 89.267 13.936C88.9077 14.3047 88.469 14.594 87.951 14.804C87.433 15.0093 86.8497 15.112 86.201 15.112C85.5477 15.112 84.962 15.0093 84.444 14.804C83.926 14.594 83.485 14.3047 83.121 13.936C82.7617 13.5627 82.484 13.1217 82.288 12.613C82.0967 12.0997 82.001 11.542 82.001 10.94V4.878H83.884V10.933C83.884 11.3203 83.9353 11.6703 84.038 11.983C84.1453 12.2957 84.297 12.564 84.493 12.788C84.6937 13.0073 84.9363 13.1777 85.221 13.299C85.5103 13.4203 85.837 13.481 86.201 13.481C86.565 13.481 86.8893 13.4203 87.174 13.299C87.4633 13.1777 87.706 13.0073 87.902 12.788C88.098 12.5687 88.2473 12.3027 88.35 11.99C88.4573 11.6773 88.511 11.3273 88.511 10.94V4.878H90.394V6.32C90.8047 6.31067 91.115 6.23367 91.325 6.089C91.5397 5.93967 91.647 5.75533 91.647 5.536C91.647 5.44733 91.6307 5.37033 91.598 5.305C91.57 5.23967 91.5373 5.17433 91.5 5.109C91.4627 5.039 91.4277 4.96433 91.395 4.885C91.367 4.801 91.353 4.703 91.353 4.591C91.353 4.34833 91.43 4.16633 91.584 4.045C91.738 3.919 91.976 3.856 92.298 3.856H93.222ZM101.369 13.481C101.733 13.481 102.057 13.4203 102.342 13.299C102.631 13.1777 102.874 13.0073 103.07 12.788C103.266 12.5687 103.415 12.3027 103.518 11.99C103.625 11.6773 103.679 11.3273 103.679 10.94V4.878H105.562V10.94C105.562 11.542 105.464 12.0997 105.268 12.613C105.077 13.1217 104.799 13.5627 104.435 13.936C104.076 14.3047 103.637 14.594 103.119 14.804C102.601 15.0093 102.018 15.112 101.369 15.112C100.716 15.112 100.13 15.0093 99.612 14.804C99.094 14.594 98.653 14.3047 98.289 13.936C97.9296 13.5627 97.652 13.1217 97.456 12.613C97.2646 12.0997 97.169 11.542 97.169 10.94V4.878H99.052V10.933C99.052 11.3203 99.1033 11.6703 99.206 11.983C99.3133 12.2957 99.465 12.564 99.661 12.788C99.8616 13.0073 100.104 13.1777 100.389 13.299C100.678 13.4203 101.005 13.481 101.369 13.481ZM121.08 13.502C121.575 13.502 122.018 13.4203 122.41 13.257C122.807 13.0937 123.143 12.8603 123.418 12.557C123.693 12.249 123.906 11.8757 124.055 11.437C124.204 10.9937 124.279 10.4943 124.279 9.939C124.279 9.38367 124.204 8.88667 124.055 8.448C123.906 8.00467 123.693 7.63133 123.418 7.328C123.143 7.02 122.807 6.78433 122.41 6.621C122.018 6.45767 121.575 6.376 121.08 6.376H119.113V9.372H120.975V10.443H119.113V13.502H121.08ZM121.08 4.878C121.85 4.878 122.55 5.004 123.18 5.256C123.81 5.50333 124.349 5.851 124.797 6.299C125.245 6.74233 125.593 7.27433 125.84 7.895C126.087 8.51567 126.211 9.197 126.211 9.939C126.211 10.681 126.087 11.3623 125.84 11.983C125.593 12.6037 125.245 13.138 124.797 13.586C124.349 14.034 123.81 14.3817 123.18 14.629C122.55 14.8763 121.85 15 121.08 15H117.223V10.443H115.956V9.372H117.223V4.878H121.08ZM132.753 15H130.863V4.878H132.753V15ZM139.91 6.376V9.183H143.452V10.632H139.91V13.495H144.404V15H138.02V4.878H144.404V6.376H139.91ZM143.816 4.157H142.563C142.493 4.157 142.406 4.14533 142.304 4.122C142.206 4.094 142.103 4.017 141.996 3.891L141.422 3.149C141.375 3.08367 141.34 3.03233 141.317 2.995C141.293 3.03233 141.258 3.08367 141.212 3.149L140.638 3.891C140.53 4.017 140.425 4.094 140.323 4.122C140.225 4.14533 140.141 4.157 140.071 4.157H138.874L140.561 2.232H142.129L143.816 4.157ZM142.5 1.035C142.649 0.918333 142.824 0.825 143.025 0.754999C143.225 0.684999 143.447 0.649999 143.69 0.649999C143.876 0.649999 144.049 0.673332 144.208 0.719999C144.371 0.761999 144.511 0.827332 144.628 0.915999C144.744 1.00467 144.835 1.11667 144.901 1.252C144.971 1.38733 145.006 1.54367 145.006 1.721C145.006 1.96367 144.922 2.17833 144.754 2.365C144.586 2.547 144.371 2.68233 144.11 2.771L143.998 3.065H143.333V2.253C143.575 2.22033 143.757 2.162 143.879 2.078C144 1.994 144.061 1.89833 144.061 1.791C144.061 1.69767 144.023 1.62067 143.949 1.56C143.879 1.49467 143.776 1.462 143.641 1.462C143.575 1.462 143.515 1.47133 143.459 1.49C143.403 1.50867 143.349 1.52967 143.298 1.553C143.251 1.57633 143.207 1.59733 143.165 1.616C143.123 1.63467 143.081 1.644 143.039 1.644C142.983 1.644 142.938 1.63 142.906 1.602C142.878 1.574 142.847 1.53667 142.815 1.49L142.5 1.035ZM160.048 4.878V15H158.389V8.462C158.389 8.20067 158.403 7.91833 158.431 7.615L155.372 13.362C155.228 13.6373 155.006 13.775 154.707 13.775H154.441C154.143 13.775 153.921 13.6373 153.776 13.362L150.682 7.594C150.696 7.748 150.708 7.89967 150.717 8.049C150.727 8.19833 150.731 8.336 150.731 8.462V15H149.072V4.878H150.493C150.577 4.878 150.65 4.88033 150.71 4.885C150.771 4.88967 150.825 4.90133 150.871 4.92C150.923 4.93867 150.967 4.969 151.004 5.011C151.046 5.053 151.086 5.109 151.123 5.179L154.154 10.8C154.234 10.9493 154.306 11.1033 154.371 11.262C154.441 11.4207 154.509 11.584 154.574 11.752C154.64 11.5793 154.707 11.4137 154.777 11.255C154.847 11.0917 154.922 10.9353 155.001 10.786L157.99 5.179C158.028 5.109 158.067 5.053 158.109 5.011C158.151 4.969 158.196 4.93867 158.242 4.92C158.294 4.90133 158.35 4.88967 158.41 4.885C158.471 4.88033 158.543 4.878 158.627 4.878H160.048Z" fill="url(#paint0_linear_1_11982)"/>
<rect y="9" width="69" height="1" rx="0.5" fill="url(#paint1_linear_1_11982)"/>
<defs>
<linearGradient id="paint0_linear_1_11982" x1="81" y1="1" x2="87.8347" y2="33.5655" gradientUnits="userSpaceOnUse">
<stop stop-color="#3EED8B"/>
<stop offset="1" stop-color="#0A9949"/>
</linearGradient>
<linearGradient id="paint1_linear_1_11982" x1="0" y1="9" x2="0.0289794" y2="10.9996" gradientUnits="userSpaceOnUse">
<stop stop-color="#3EED8B"/>
<stop offset="1" stop-color="#0A9949"/>
</linearGradient>
</defs>
</svg>
