<svg width="206" height="45" viewBox="0 0 206 45" fill="none" xmlns="http://www.w3.org/2000/svg">
<path opacity="0.7" d="M87.5303 40.5081C87.5303 42.8697 85.6165 44.7836 83.2549 44.7836C80.8934 44.7836 78.9795 42.8697 78.9795 40.5081C78.9795 38.1465 80.8934 36.2327 83.2549 36.2327C85.6165 36.2327 87.5303 38.1465 87.5303 40.5081Z" fill="#FFC700"/>
<path opacity="0.7" d="M127.021 40.5081C127.021 42.8697 125.107 44.7836 122.745 44.7836C120.383 44.7836 118.47 42.8697 118.47 40.5081C118.47 38.1465 120.383 36.2327 122.745 36.2327C125.107 36.2327 127.021 38.1465 127.021 40.5081Z" fill="#FFC700"/>
<path opacity="0.7" d="M166.51 40.5081C166.51 42.8697 164.597 44.7836 162.235 44.7836C159.873 44.7836 157.959 42.8697 157.959 40.5081C157.959 38.1465 159.873 36.2327 162.235 36.2327C164.597 36.2327 166.51 38.1465 166.51 40.5081Z" fill="#FFC700"/>
<path opacity="0.7" d="M206 40.5081C206 42.8697 204.086 44.7836 201.725 44.7836C199.363 44.7836 197.449 42.8697 197.449 40.5081C197.449 38.1465 199.363 36.2327 201.725 36.2327C204.086 36.2327 206 38.1465 206 40.5081Z" fill="#FFC700"/>
<path opacity="0.7" d="M87.5303 4.27538C87.5303 6.63697 85.6165 8.55083 83.2549 8.55083C80.8934 8.55083 78.9795 6.63697 78.9795 4.27538C78.9795 1.91379 80.8934 2.03731e-05 83.2549 2.03731e-05C85.6165 -0.00720162 87.5303 1.90657 87.5303 4.27538Z" fill="#FFC700"/>
<path opacity="0.7" d="M127.021 4.27538C127.021 6.63697 125.107 8.55083 122.745 8.55083C120.383 8.55083 118.47 6.63697 118.47 4.27538C118.47 1.91379 120.383 2.03731e-05 122.745 2.03731e-05C125.107 -0.00720162 127.021 1.90657 127.021 4.27538Z" fill="#FFC700"/>
<path opacity="0.7" d="M166.51 4.27538C166.51 6.63697 164.597 8.55083 162.235 8.55083C159.873 8.55083 157.959 6.63697 157.959 4.27538C157.959 1.91379 159.873 2.03731e-05 162.235 2.03731e-05C164.597 -0.00720162 166.51 1.90657 166.51 4.27538Z" fill="#FFC700"/>
<path opacity="0.7" d="M206 4.27538C206 6.63697 204.086 8.55083 201.725 8.55083C199.363 8.55083 197.449 6.63697 197.449 4.27538C197.449 1.91379 199.363 2.03731e-05 201.725 2.03731e-05C204.086 -0.00720162 206 1.90657 206 4.27538Z" fill="#FFC700"/>
<path opacity="0.7" d="M8.55081 40.5081C8.55081 42.8697 6.63704 44.7836 4.27545 44.7836C1.91386 44.7836 0 42.8697 0 40.5081C0 38.1465 1.91386 36.2327 4.27545 36.2327C6.63704 36.2327 8.55081 38.1465 8.55081 40.5081Z" fill="#FFC700"/>
<path opacity="0.7" d="M48.0406 40.5081C48.0406 42.8697 46.1267 44.7836 43.7651 44.7836C41.4035 44.7836 39.4897 42.8697 39.4897 40.5081C39.4897 38.1465 41.4035 36.2327 43.7651 36.2327C46.1267 36.2327 48.0406 38.1465 48.0406 40.5081Z" fill="#FFC700"/>
<path opacity="0.7" d="M8.55081 4.27536C8.55081 6.63695 6.63704 8.55081 4.27545 8.55081C1.91386 8.55081 0 6.63695 0 4.27536C0 1.91377 1.91386 0 4.27545 0C6.63704 0 8.55081 1.90655 8.55081 4.27536Z" fill="#FFC700"/>
<path opacity="0.7" d="M48.0406 4.27536C48.0406 6.63695 46.1267 8.55081 43.7651 8.55081C41.4035 8.55081 39.4897 6.63695 39.4897 4.27536C39.4897 1.91377 41.4035 0 43.7651 0C46.1267 0 48.0406 1.90655 48.0406 4.27536Z" fill="#FFC700"/>
</svg>
