<svg width="184" height="17" viewBox="0 0 184 17" fill="none" xmlns="http://www.w3.org/2000/svg">
<path d="M90.471 8.925V13.02C89.9577 13.398 89.4093 13.6757 88.826 13.853C88.2473 14.0257 87.6267 14.112 86.964 14.112C86.138 14.112 85.389 13.9837 84.717 13.727C84.0497 13.4703 83.478 13.1133 83.002 12.656C82.5307 12.1987 82.1667 11.6527 81.91 11.018C81.6533 10.3833 81.525 9.69033 81.525 8.939C81.525 8.17833 81.6487 7.48067 81.896 6.846C82.1433 6.21133 82.4933 5.66533 82.946 5.208C83.4033 4.75067 83.9563 4.396 84.605 4.144C85.2537 3.892 85.9817 3.766 86.789 3.766C87.1997 3.766 87.5823 3.79867 87.937 3.864C88.2963 3.92933 88.6277 4.02033 88.931 4.137C89.239 4.249 89.519 4.38667 89.771 4.55C90.023 4.71333 90.254 4.893 90.464 5.089L89.925 5.943C89.841 6.07833 89.7313 6.16233 89.596 6.195C89.4607 6.223 89.3137 6.188 89.155 6.09C89.001 6.00133 88.847 5.91267 88.693 5.824C88.539 5.73533 88.3663 5.65833 88.175 5.593C87.9883 5.52767 87.776 5.474 87.538 5.432C87.3047 5.39 87.034 5.369 86.726 5.369C86.2267 5.369 85.774 5.453 85.368 5.621C84.9667 5.789 84.6237 6.02933 84.339 6.342C84.0543 6.65467 83.835 7.03033 83.681 7.469C83.527 7.90767 83.45 8.39767 83.45 8.939C83.45 9.51767 83.5317 10.0357 83.695 10.493C83.863 10.9457 84.0963 11.3307 84.395 11.648C84.6983 11.9607 85.0623 12.201 85.487 12.369C85.9117 12.5323 86.3853 12.614 86.908 12.614C87.2813 12.614 87.615 12.5743 87.909 12.495C88.203 12.4157 88.49 12.3083 88.77 12.173V10.339H87.496C87.3747 10.339 87.279 10.3063 87.209 10.241C87.1437 10.171 87.111 10.087 87.111 9.989V8.925H90.471ZM97.1752 14H95.2852V3.878H97.1752V14ZM106.97 12.502C107.465 12.502 107.908 12.4203 108.3 12.257C108.697 12.0937 109.033 11.8603 109.308 11.557C109.584 11.249 109.796 10.8757 109.945 10.437C110.095 9.99367 110.169 9.49433 110.169 8.939C110.169 8.38367 110.095 7.88667 109.945 7.448C109.796 7.00467 109.584 6.629 109.308 6.321C109.033 6.013 108.697 5.77733 108.3 5.614C107.908 5.45067 107.465 5.369 106.97 5.369C106.476 5.369 106.03 5.45067 105.633 5.614C105.241 5.77733 104.905 6.013 104.625 6.321C104.35 6.629 104.138 7.00467 103.988 7.448C103.839 7.88667 103.764 8.38367 103.764 8.939C103.764 9.49433 103.839 9.99367 103.988 10.437C104.138 10.8757 104.35 11.249 104.625 11.557C104.905 11.8603 105.241 12.0937 105.633 12.257C106.03 12.4203 106.476 12.502 106.97 12.502ZM113.046 2.856C113.079 2.95867 113.102 3.08 113.116 3.22C113.135 3.36 113.144 3.50467 113.144 3.654C113.144 3.934 113.107 4.20233 113.032 4.459C112.958 4.711 112.843 4.93967 112.689 5.145C112.54 5.35033 112.351 5.53233 112.122 5.691C111.894 5.845 111.625 5.964 111.317 6.048C111.569 6.45867 111.761 6.90667 111.891 7.392C112.027 7.87267 112.094 8.38833 112.094 8.939C112.094 9.681 111.971 10.3693 111.723 11.004C111.481 11.634 111.135 12.18 110.687 12.642C110.239 13.104 109.7 13.4657 109.07 13.727C108.44 13.9837 107.74 14.112 106.97 14.112C106.205 14.112 105.507 13.9837 104.877 13.727C104.247 13.4657 103.706 13.104 103.253 12.642C102.805 12.18 102.458 11.634 102.21 11.004C101.963 10.3693 101.839 9.681 101.839 8.939C101.839 8.197 101.963 7.511 102.21 6.881C102.458 6.24633 102.805 5.698 103.253 5.236C103.706 4.774 104.247 4.41467 104.877 4.158C105.507 3.89667 106.205 3.766 106.97 3.766C107.754 3.766 108.459 3.899 109.084 4.165C109.714 4.42633 110.256 4.79267 110.708 5.264C110.96 5.208 111.149 5.11467 111.275 4.984C111.406 4.85333 111.471 4.704 111.471 4.536C111.471 4.44733 111.455 4.37033 111.422 4.305C111.394 4.23967 111.362 4.17433 111.324 4.109C111.287 4.039 111.252 3.96433 111.219 3.885C111.191 3.801 111.177 3.703 111.177 3.591C111.177 3.34833 111.254 3.16633 111.408 3.045C111.562 2.919 111.8 2.856 112.122 2.856H113.046ZM109.924 0.973L107.656 2.975C107.563 3.059 107.474 3.11033 107.39 3.129C107.306 3.14767 107.199 3.157 107.068 3.157H105.815L107.278 1.26C107.325 1.19467 107.372 1.14333 107.418 1.106C107.465 1.064 107.516 1.03367 107.572 1.015C107.628 0.996333 107.689 0.984666 107.754 0.979999C107.824 0.975333 107.906 0.973 107.999 0.973H109.924ZM119.376 14H117.486V3.878H119.376V14ZM137.693 5.425H134.641V14H132.758V5.425H129.706V3.878H137.693V5.425ZM150.551 3.878V14H148.661V9.576H143.908V14H142.018V3.878H143.908V8.232H148.661V3.878H150.551ZM157.695 14H155.805V3.878H157.695V14ZM164.851 5.376V8.183H168.393V9.632H164.851V12.495H169.345V14H162.961V3.878H169.345V5.376H164.851ZM168.757 3.157H167.504C167.434 3.157 167.348 3.14533 167.245 3.122C167.147 3.094 167.044 3.017 166.937 2.891L166.363 2.149C166.316 2.08367 166.281 2.03233 166.258 1.995C166.235 2.03233 166.2 2.08367 166.153 2.149L165.579 2.891C165.472 3.017 165.367 3.094 165.264 3.122C165.166 3.14533 165.082 3.157 165.012 3.157H163.815L165.502 1.232H167.07L168.757 3.157ZM167.378 15.666C167.378 15.7967 167.35 15.9203 167.294 16.037C167.243 16.1537 167.173 16.2563 167.084 16.345C166.995 16.4337 166.89 16.5037 166.769 16.555C166.648 16.6063 166.522 16.632 166.391 16.632C166.26 16.632 166.137 16.6063 166.02 16.555C165.903 16.5037 165.801 16.4337 165.712 16.345C165.628 16.2563 165.56 16.1537 165.509 16.037C165.458 15.9203 165.432 15.7967 165.432 15.666C165.432 15.5353 165.458 15.4093 165.509 15.288C165.56 15.1713 165.628 15.0687 165.712 14.98C165.801 14.896 165.903 14.8283 166.02 14.777C166.137 14.7257 166.26 14.7 166.391 14.7C166.522 14.7 166.648 14.7257 166.769 14.777C166.89 14.8283 166.995 14.896 167.084 14.98C167.173 15.0687 167.243 15.1713 167.294 15.288C167.35 15.4093 167.378 15.5353 167.378 15.666ZM178.088 12.481C178.452 12.481 178.776 12.4203 179.061 12.299C179.35 12.1777 179.593 12.0073 179.789 11.788C179.985 11.5687 180.134 11.3027 180.237 10.99C180.344 10.6773 180.398 10.3273 180.398 9.94V3.878H182.281V9.94C182.281 10.542 182.183 11.0997 181.987 11.613C181.795 12.1217 181.518 12.5627 181.154 12.936C180.794 13.3047 180.356 13.594 179.838 13.804C179.32 14.0093 178.736 14.112 178.088 14.112C177.434 14.112 176.849 14.0093 176.331 13.804C175.813 13.594 175.372 13.3047 175.008 12.936C174.648 12.5627 174.371 12.1217 174.175 11.613C173.983 11.0997 173.888 10.542 173.888 9.94V3.878H175.771V9.933C175.771 10.3203 175.822 10.6703 175.925 10.983C176.032 11.2957 176.184 11.564 176.38 11.788C176.58 12.0073 176.823 12.1777 177.108 12.299C177.397 12.4203 177.724 12.481 178.088 12.481Z" fill="url(#paint0_linear_1_11998)"/>
<rect y="8" width="69" height="1" rx="0.5" fill="url(#paint1_linear_1_11998)"/>
<defs>
<linearGradient id="paint0_linear_1_11998" x1="81" y1="0" x2="86.4628" y2="33.0984" gradientUnits="userSpaceOnUse">
<stop stop-color="#3EED8B"/>
<stop offset="1" stop-color="#0A9949"/>
</linearGradient>
<linearGradient id="paint1_linear_1_11998" x1="0" y1="8" x2="0.0289794" y2="9.99958" gradientUnits="userSpaceOnUse">
<stop stop-color="#3EED8B"/>
<stop offset="1" stop-color="#0A9949"/>
</linearGradient>
</defs>
</svg>
