<svg width="83" height="145" viewBox="0 0 83 145" fill="none" xmlns="http://www.w3.org/2000/svg">
<path d="M4.05585 8.08132C6.29587 8.08132 8.11169 6.27232 8.11169 4.04068C8.11169 1.80904 6.29587 0 4.05585 0C1.81582 0 0 1.80904 0 4.04068C0 6.27232 1.81582 8.08132 4.05585 8.08132ZM41.5 42.3136C43.74 42.3136 45.5558 40.5046 45.5558 38.2729C45.5558 36.0413 43.74 34.2322 41.5 34.2322C39.26 34.2322 37.4442 36.0413 37.4442 38.2729C37.4442 40.5046 39.26 42.3136 41.5 42.3136ZM4.05585 42.3136C6.29587 42.3136 8.11169 40.5046 8.11169 38.2729C8.11169 36.0413 6.29587 34.2322 4.05585 34.2322C1.81582 34.2322 0 36.0413 0 38.2729C0 40.5046 1.81582 42.3136 4.05585 42.3136ZM78.9442 76.5407C81.1842 76.5407 83 74.7316 83 72.5C83 70.2684 81.1842 68.4594 78.9442 68.4594C76.7041 68.4594 74.8883 70.2684 74.8883 72.5C74.8883 74.7316 76.7041 76.5407 78.9442 76.5407ZM41.5 76.5407C43.74 76.5407 45.5558 74.7316 45.5558 72.5C45.5558 70.2684 43.74 68.4594 41.5 68.4594C39.26 68.4594 37.4442 70.2684 37.4442 72.5C37.4442 74.7316 39.26 76.5407 41.5 76.5407ZM4.05585 76.5407C6.29587 76.5407 8.11169 74.7316 8.11169 72.5C8.11169 70.2684 6.29587 68.4594 4.05585 68.4594C1.81582 68.4594 0 70.2684 0 72.5C0 74.7316 1.81582 76.5407 4.05585 76.5407ZM41.5 110.773C43.74 110.773 45.5558 108.964 45.5558 106.732C45.5558 104.501 43.74 102.692 41.5 102.692C39.26 102.692 37.4442 104.501 37.4442 106.732C37.4442 108.964 39.26 110.773 41.5 110.773ZM4.05585 110.773C6.29587 110.773 8.11169 108.964 8.11169 106.732C8.11169 104.501 6.29587 102.692 4.05585 102.692C1.81582 102.692 0 104.501 0 106.732C0 108.964 1.81582 110.773 4.05585 110.773ZM4.05585 145C6.29587 145 8.11169 143.191 8.11169 140.959C8.11169 138.728 6.29587 136.919 4.05585 136.919C1.81582 136.919 0 138.728 0 140.959C0 143.191 1.81582 145 4.05585 145Z" fill="#FFC700"/>
</svg>
