<svg width="105" height="105" viewBox="0 0 105 105" fill="none" xmlns="http://www.w3.org/2000/svg">
<g filter="url(#filter0_d_1_11948)">
<rect x="89" y="81" width="73" height="73" rx="20" transform="rotate(-180 89 81)" fill="url(#paint0_linear_1_11948)"/>
</g>
<g clip-path="url(#clip0_1_11948)">
<path d="M73.3197 61.7842C73.3197 61.7842 67.9921 52.6278 67.0365 50.9856C68.1238 50.6539 69.282 50.361 69.7633 49.5301C70.5653 48.1455 69.1377 45.8742 69.5125 44.3901C69.8987 42.8627 72.1783 41.541 72.1783 39.9884C72.1783 38.4758 69.8215 36.7087 69.4351 35.1902C69.0576 33.7064 70.481 31.4326 69.6764 30.0497C68.8717 28.6667 66.1917 28.7803 65.0884 27.7188C63.9533 26.6263 63.9568 23.9534 62.5877 23.2213C61.2129 22.4864 58.9787 23.9715 57.4523 23.6197C55.9434 23.272 54.5952 21 53.0191 21C51.4195 21 48.8754 23.5772 48.4764 23.6699C46.9508 24.0246 44.7137 22.5431 43.3404 23.2811C41.9726 24.0156 41.981 26.6888 40.848 27.7831C39.7465 28.8466 37.0664 28.7379 36.2642 30.1225C35.4622 31.5068 36.8898 33.7776 36.5151 35.2625C36.1393 36.7511 33.7803 38.2595 33.7803 39.981C33.7803 41.5337 36.0656 42.8513 36.4541 44.3779C36.8317 45.8617 35.4083 48.1352 36.213 49.5186C36.651 50.2716 37.6449 50.5808 38.6375 50.8779C38.7533 50.9126 38.9724 51.0422 38.824 51.2584C38.1449 52.4305 32.6794 61.8633 32.6794 61.8633C32.2446 62.6136 32.5976 63.2567 33.4638 63.2932L37.7033 63.47C38.5694 63.5064 39.6559 64.1358 40.1182 64.8691L42.3804 68.4588C42.8427 69.1921 43.5763 69.1784 44.0109 68.4282C44.0109 68.4282 50.3407 57.5002 50.3433 57.4971C50.4703 57.3487 50.5979 57.3792 50.659 57.431C51.3516 58.0207 52.317 58.609 53.1228 58.609C53.913 58.609 54.6448 58.0552 55.3686 57.4377C55.4275 57.3875 55.5708 57.2846 55.6756 57.4981C55.6773 57.5015 62 68.3697 62 68.3697C62.4359 69.1189 63.1696 69.1317 63.6304 68.3975L65.8863 64.8034C66.3473 64.0696 67.4327 63.4378 68.2988 63.4L72.5379 63.2153C73.4036 63.1773 73.7555 62.5333 73.3197 61.7842ZM60.0254 51.9542C55.338 54.6812 49.7116 54.389 45.4141 51.6783C39.117 47.6448 37.0451 39.3009 40.8306 32.7673C44.6593 26.1583 53.0756 23.8262 59.7442 27.4582C59.7792 27.4772 59.8138 27.4969 59.8486 27.5164C59.898 27.5438 59.9473 27.5715 59.9965 27.5995C62.0537 28.7857 63.8377 30.5071 65.1152 32.7028C69.0194 39.4138 66.7362 48.05 60.0254 51.9542Z" fill="white"/>
<path d="M58.9532 29.5745C58.9337 29.5632 58.914 29.5527 58.8945 29.5416C55.3323 27.4799 50.792 27.3292 46.9868 29.543C41.34 32.8282 39.4185 40.0947 42.7037 45.7414C43.7061 47.4645 45.0798 48.84 46.6647 49.8272C46.7995 49.9125 46.9358 49.9965 47.0751 50.0771C52.728 53.3521 59.9906 51.4175 63.2654 45.7649C66.5401 40.112 64.6061 32.8495 58.9532 29.5745ZM60.3673 38.8156L58.388 40.7449C57.775 41.3423 57.3918 42.5217 57.5367 43.3655L58.0039 46.0897C58.1487 46.9335 57.6472 47.2979 56.8894 46.8995L54.4428 45.6132C53.685 45.2149 52.4451 45.2149 51.6873 45.6132L49.2408 46.8995C48.483 47.2979 47.9814 46.9335 48.1262 46.0897L48.5934 43.3655C48.7382 42.5217 48.355 41.3423 47.742 40.7449L45.7628 38.8156C45.1496 38.2181 45.3413 37.6285 46.1885 37.5052L48.9237 37.1078C49.7709 36.9847 50.7741 36.2558 51.153 35.4881L52.3762 33.0097C52.7551 32.242 53.3751 32.242 53.7539 33.0097L54.9773 35.4881C55.3562 36.2558 56.3592 36.9847 57.2066 37.1078L59.9417 37.5052C60.7888 37.6285 60.9804 38.2181 60.3673 38.8156Z" fill="white"/>
</g>
<defs>
<filter id="filter0_d_1_11948" x="0" y="0" width="105" height="105" filterUnits="userSpaceOnUse" color-interpolation-filters="sRGB">
<feFlood flood-opacity="0" result="BackgroundImageFix"/>
<feColorMatrix in="SourceAlpha" type="matrix" values="0 0 0 0 0 0 0 0 0 0 0 0 0 0 0 0 0 0 127 0" result="hardAlpha"/>
<feOffset dy="8"/>
<feGaussianBlur stdDeviation="8"/>
<feComposite in2="hardAlpha" operator="out"/>
<feColorMatrix type="matrix" values="0 0 0 0 0.0392157 0 0 0 0 0.6 0 0 0 0 0.286274 0 0 0 0.3 0"/>
<feBlend mode="normal" in2="BackgroundImageFix" result="effect1_dropShadow_1_11948"/>
<feBlend mode="normal" in="SourceGraphic" in2="effect1_dropShadow_1_11948" result="shape"/>
</filter>
<linearGradient id="paint0_linear_1_11948" x1="89" y1="81" x2="162" y2="154" gradientUnits="userSpaceOnUse">
<stop stop-color="#16A085"/>
<stop offset="1" stop-color="#F4D03F"/>
</linearGradient>
<clipPath id="clip0_1_11948">
<rect width="48" height="48" fill="white" transform="translate(29 21)"/>
</clipPath>
</defs>
</svg>
