<svg width="158" height="17" viewBox="0 0 158 17" fill="none" xmlns="http://www.w3.org/2000/svg">
<path d="M89.078 11.613C89.1807 11.613 89.2717 11.6527 89.351 11.732L90.093 12.537C89.6823 13.0457 89.176 13.4353 88.574 13.706C87.9767 13.9767 87.258 14.112 86.418 14.112C85.6667 14.112 84.99 13.9837 84.388 13.727C83.7907 13.4703 83.2797 13.1133 82.855 12.656C82.4303 12.1987 82.1037 11.6527 81.875 11.018C81.651 10.3833 81.539 9.69033 81.539 8.939C81.539 8.17833 81.6603 7.483 81.903 6.853C82.1457 6.21833 82.4863 5.67233 82.925 5.215C83.3683 4.75767 83.8957 4.403 84.507 4.151C85.1183 3.89433 85.795 3.766 86.537 3.766C87.2743 3.766 87.9277 3.88733 88.497 4.13C89.071 4.37267 89.5587 4.69 89.96 5.082L89.33 5.957C89.2927 6.013 89.2437 6.062 89.183 6.104C89.127 6.146 89.0477 6.167 88.945 6.167C88.875 6.167 88.8027 6.14833 88.728 6.111C88.6533 6.069 88.5717 6.02 88.483 5.964C88.3943 5.90333 88.2917 5.838 88.175 5.768C88.0583 5.698 87.923 5.635 87.769 5.579C87.615 5.51833 87.4353 5.46933 87.23 5.432C87.0293 5.39 86.796 5.369 86.53 5.369C86.0773 5.369 85.662 5.45067 85.284 5.614C84.9107 5.77267 84.5887 6.006 84.318 6.314C84.0473 6.61733 83.8373 6.99067 83.688 7.434C83.5387 7.87267 83.464 8.37433 83.464 8.939C83.464 9.50833 83.5433 10.0147 83.702 10.458C83.8653 10.9013 84.0847 11.2747 84.36 11.578C84.6353 11.8813 84.9597 12.1147 85.333 12.278C85.7063 12.4367 86.1077 12.516 86.537 12.516C86.7937 12.516 87.0247 12.502 87.23 12.474C87.44 12.446 87.6313 12.4017 87.804 12.341C87.9813 12.2803 88.147 12.2033 88.301 12.11C88.4597 12.012 88.616 11.893 88.77 11.753C88.8167 11.711 88.8657 11.6783 88.917 11.655C88.9683 11.627 89.022 11.613 89.078 11.613ZM99.7309 10.178L98.4989 6.811C98.4382 6.66167 98.3752 6.48433 98.3099 6.279C98.2445 6.07367 98.1792 5.852 98.1139 5.614C98.0532 5.852 97.9902 6.076 97.9249 6.286C97.8595 6.49133 97.7965 6.671 97.7359 6.825L96.5109 10.178H99.7309ZM103.056 14H101.6C101.437 14 101.304 13.9603 101.201 13.881C101.098 13.797 101.021 13.6943 100.97 13.573L100.214 11.508H96.0209L95.2649 13.573C95.2275 13.6803 95.1552 13.7783 95.0479 13.867C94.9405 13.9557 94.8075 14 94.6489 14H93.1789L97.1619 3.878H99.0799L103.056 14ZM100.613 3.157H99.3599C99.2899 3.157 99.2035 3.14533 99.1009 3.122C99.0029 3.094 98.9002 3.017 98.7929 2.891L98.2189 2.149C98.1722 2.08367 98.1372 2.03233 98.1139 1.995C98.0905 2.03233 98.0555 2.08367 98.0089 2.149L97.4349 2.891C97.3275 3.017 97.2225 3.094 97.1199 3.122C97.0219 3.14533 96.9379 3.157 96.8679 3.157H95.6709L97.3579 1.232H98.9259L100.613 3.157ZM110.931 12.481C111.295 12.481 111.62 12.4203 111.904 12.299C112.194 12.1777 112.436 12.0073 112.632 11.788C112.828 11.5687 112.978 11.3027 113.08 10.99C113.188 10.6773 113.241 10.3273 113.241 9.94V3.878H115.124V9.94C115.124 10.542 115.026 11.0997 114.83 11.613C114.639 12.1217 114.361 12.5627 113.997 12.936C113.638 13.3047 113.199 13.594 112.681 13.804C112.163 14.0093 111.58 14.112 110.931 14.112C110.278 14.112 109.692 14.0093 109.174 13.804C108.656 13.594 108.215 13.3047 107.851 12.936C107.492 12.5627 107.214 12.1217 107.018 11.613C106.827 11.0997 106.731 10.542 106.731 9.94V3.878H108.614V9.933C108.614 10.3203 108.666 10.6703 108.768 10.983C108.876 11.2957 109.027 11.564 109.223 11.788C109.424 12.0073 109.667 12.1777 109.951 12.299C110.241 12.4203 110.567 12.481 110.931 12.481ZM135.185 3.878V14H133.295V9.576H128.542V14H126.652V3.878H128.542V8.232H133.295V3.878H135.185ZM150.093 8.939C150.093 9.681 149.969 10.3693 149.722 11.004C149.479 11.634 149.134 12.18 148.686 12.642C148.238 13.104 147.699 13.4657 147.069 13.727C146.439 13.9837 145.739 14.112 144.969 14.112C144.203 14.112 143.506 13.9837 142.876 13.727C142.246 13.4657 141.704 13.104 141.252 12.642C140.804 12.18 140.456 11.634 140.209 11.004C139.961 10.3693 139.838 9.681 139.838 8.939C139.838 8.197 139.961 7.511 140.209 6.881C140.456 6.24633 140.804 5.698 141.252 5.236C141.704 4.774 142.246 4.41467 142.876 4.158C143.506 3.89667 144.203 3.766 144.969 3.766C145.482 3.766 145.965 3.82667 146.418 3.948C146.87 4.06467 147.286 4.23267 147.664 4.452C148.042 4.66667 148.38 4.93033 148.679 5.243C148.982 5.551 149.239 5.89633 149.449 6.279C149.659 6.66167 149.817 7.077 149.925 7.525C150.037 7.973 150.093 8.44433 150.093 8.939ZM148.168 8.939C148.168 8.38367 148.093 7.88667 147.944 7.448C147.794 7.00467 147.582 6.629 147.307 6.321C147.031 6.013 146.695 5.77733 146.299 5.614C145.907 5.45067 145.463 5.369 144.969 5.369C144.474 5.369 144.028 5.45067 143.632 5.614C143.24 5.77733 142.904 6.013 142.624 6.321C142.348 6.629 142.136 7.00467 141.987 7.448C141.837 7.88667 141.763 8.38367 141.763 8.939C141.763 9.49433 141.837 9.99367 141.987 10.437C142.136 10.8757 142.348 11.249 142.624 11.557C142.904 11.8603 143.24 12.0937 143.632 12.257C144.028 12.4203 144.474 12.502 144.969 12.502C145.463 12.502 145.907 12.4203 146.299 12.257C146.695 12.0937 147.031 11.8603 147.307 11.557C147.582 11.249 147.794 10.8757 147.944 10.437C148.093 9.99367 148.168 9.49433 148.168 8.939ZM143.443 1.47C143.592 1.358 143.802 1.267 144.073 1.197C144.348 1.12233 144.637 1.085 144.941 1.085C145.421 1.085 145.788 1.17367 146.04 1.351C146.296 1.52833 146.425 1.757 146.425 2.037C146.425 2.163 146.399 2.275 146.347 2.373C146.301 2.471 146.236 2.55967 146.152 2.639C146.068 2.71367 145.967 2.779 145.851 2.835C145.739 2.88633 145.617 2.93067 145.487 2.968L145.368 3.332H144.542V2.555C144.784 2.52233 144.957 2.47567 145.06 2.415C145.162 2.34967 145.214 2.27733 145.214 2.198C145.214 2.10933 145.167 2.037 145.074 1.981C144.985 1.925 144.866 1.897 144.717 1.897C144.628 1.897 144.546 1.90633 144.472 1.925C144.402 1.94367 144.336 1.967 144.276 1.995C144.22 2.01833 144.166 2.03933 144.115 2.058C144.068 2.07667 144.024 2.086 143.982 2.086C143.93 2.086 143.888 2.072 143.856 2.044C143.828 2.016 143.797 1.97633 143.765 1.925L143.443 1.47ZM156.636 14H154.746V3.878H156.636V14Z" fill="url(#paint0_linear_1_12200)"/>
<rect y="8" width="69" height="1" rx="0.5" fill="url(#paint1_linear_1_12200)"/>
<defs>
<linearGradient id="paint0_linear_1_12200" x1="81" y1="0" x2="88.1576" y2="32.4197" gradientUnits="userSpaceOnUse">
<stop stop-color="#3EED8B"/>
<stop offset="1" stop-color="#0A9949"/>
</linearGradient>
<linearGradient id="paint1_linear_1_12200" x1="0" y1="8" x2="0.0289794" y2="9.99958" gradientUnits="userSpaceOnUse">
<stop stop-color="#3EED8B"/>
<stop offset="1" stop-color="#0A9949"/>
</linearGradient>
</defs>
</svg>
