<svg width="191" height="17" viewBox="0 0 191 17" fill="none" xmlns="http://www.w3.org/2000/svg">
<path d="M47.8056 8.939C47.8056 9.49433 47.8803 9.99367 48.0296 10.437C48.179 10.8757 48.3913 11.249 48.6666 11.557C48.9466 11.8603 49.2826 12.0937 49.6746 12.257C50.0713 12.4203 50.517 12.502 51.0116 12.502C51.5063 12.502 51.9496 12.4203 52.3416 12.257C52.7383 12.0937 53.0743 11.8603 53.3496 11.557C53.625 11.249 53.8373 10.8757 53.9866 10.437C54.136 9.99367 54.2106 9.49433 54.2106 8.939C54.2106 8.38367 54.136 7.88667 53.9866 7.448C53.8373 7.00467 53.625 6.629 53.3496 6.321C53.0743 6.013 52.7383 5.77733 52.3416 5.614C51.9496 5.45067 51.5063 5.369 51.0116 5.369C50.517 5.369 50.0713 5.45067 49.6746 5.614C49.2826 5.77733 48.9466 6.013 48.6666 6.321C48.3913 6.629 48.179 7.00467 48.0296 7.448C47.8803 7.88667 47.8056 8.38367 47.8056 8.939ZM56.6606 15.981H55.1066C54.8826 15.981 54.6796 15.9507 54.4976 15.89C54.3203 15.8293 54.157 15.7173 54.0076 15.554L52.5236 13.916C52.2856 13.9813 52.0406 14.0303 51.7886 14.063C51.5413 14.0957 51.2823 14.112 51.0116 14.112C50.2463 14.112 49.5486 13.9837 48.9186 13.727C48.2886 13.4657 47.7473 13.104 47.2946 12.642C46.8466 12.18 46.499 11.634 46.2516 11.004C46.0043 10.3693 45.8806 9.681 45.8806 8.939C45.8806 8.197 46.0043 7.511 46.2516 6.881C46.499 6.24633 46.8466 5.698 47.2946 5.236C47.7473 4.774 48.2886 4.41467 48.9186 4.158C49.5486 3.89667 50.2463 3.766 51.0116 3.766C51.525 3.766 52.008 3.82667 52.4606 3.948C52.9133 4.06467 53.3286 4.23267 53.7066 4.452C54.0846 4.66667 54.423 4.93033 54.7216 5.243C55.025 5.551 55.2816 5.89633 55.4916 6.279C55.7016 6.66167 55.8603 7.077 55.9676 7.525C56.0796 7.973 56.1356 8.44433 56.1356 8.939C56.1356 9.39167 56.089 9.82567 55.9956 10.241C55.9023 10.6517 55.767 11.0367 55.5896 11.396C55.417 11.7553 55.2046 12.0867 54.9526 12.39C54.7006 12.6887 54.4136 12.9523 54.0916 13.181L56.6606 15.981ZM64.8563 12.481C65.2203 12.481 65.5446 12.4203 65.8293 12.299C66.1186 12.1777 66.3613 12.0073 66.5573 11.788C66.7533 11.5687 66.9026 11.3027 67.0053 10.99C67.1126 10.6773 67.1663 10.3273 67.1663 9.94V3.878H69.0493V9.94C69.0493 10.542 68.9513 11.0997 68.7553 11.613C68.5639 12.1217 68.2863 12.5627 67.9223 12.936C67.5629 13.3047 67.1243 13.594 66.6063 13.804C66.0883 14.0093 65.5049 14.112 64.8563 14.112C64.2029 14.112 63.6173 14.0093 63.0993 13.804C62.5813 13.594 62.1403 13.3047 61.7763 12.936C61.4169 12.5627 61.1393 12.1217 60.9433 11.613C60.7519 11.0997 60.6563 10.542 60.6563 9.94V3.878H62.5393V9.933C62.5393 10.3203 62.5906 10.6703 62.6933 10.983C62.8006 11.2957 62.9523 11.564 63.1483 11.788C63.3489 12.0073 63.5916 12.1777 63.8763 12.299C64.1656 12.4203 64.4923 12.481 64.8563 12.481ZM78.5199 10.08V14H76.6439V10.08L72.9549 3.878H74.6139C74.7772 3.878 74.9056 3.91767 74.9989 3.997C75.0969 4.07633 75.1786 4.17667 75.2439 4.298L77.0919 7.679C77.1992 7.87967 77.2926 8.06867 77.3719 8.246C77.4559 8.42333 77.5306 8.60067 77.5959 8.778C77.6566 8.60067 77.7266 8.42333 77.8059 8.246C77.8852 8.06867 77.9762 7.87967 78.0789 7.679L79.9199 4.298C79.9712 4.19533 80.0482 4.09967 80.1509 4.011C80.2536 3.92233 80.3842 3.878 80.5429 3.878H82.2089L78.5199 10.08ZM98.7273 5.425H95.6753V14H93.7923V5.425H90.7403V3.878H98.7273V5.425ZM106.111 8.694C106.465 8.694 106.773 8.64967 107.035 8.561C107.301 8.47233 107.518 8.351 107.686 8.197C107.858 8.03833 107.987 7.85167 108.071 7.637C108.155 7.42233 108.197 7.18667 108.197 6.93C108.197 6.41667 108.026 6.02233 107.686 5.747C107.35 5.47167 106.834 5.334 106.139 5.334H104.935V8.694H106.111ZM110.955 14H109.254C108.932 14 108.698 13.874 108.554 13.622L106.426 10.381C106.346 10.2597 106.258 10.1733 106.16 10.122C106.066 10.0707 105.926 10.045 105.74 10.045H104.935V14H103.052V3.878H106.139C106.825 3.878 107.413 3.95033 107.903 4.095C108.397 4.235 108.801 4.43333 109.114 4.69C109.431 4.94667 109.664 5.25467 109.814 5.614C109.963 5.96867 110.038 6.36067 110.038 6.79C110.038 7.13067 109.986 7.45267 109.884 7.756C109.786 8.05933 109.641 8.33467 109.45 8.582C109.263 8.82933 109.03 9.04633 108.75 9.233C108.474 9.41967 108.159 9.56667 107.805 9.674C107.926 9.744 108.038 9.828 108.141 9.926C108.243 10.0193 108.337 10.1313 108.421 10.262L110.955 14ZM116.938 14H115.048V3.878H116.938V14ZM114.873 0.973C114.966 0.973 115.046 0.975333 115.111 0.979999C115.181 0.984666 115.242 0.998666 115.293 1.022C115.349 1.04067 115.4 1.06867 115.447 1.106C115.494 1.14333 115.543 1.19467 115.594 1.26L117.12 3.157H115.867C115.732 3.157 115.624 3.15 115.545 3.136C115.47 3.11733 115.386 3.06833 115.293 2.989L113.06 0.973H114.873ZM130.737 3.878V14H129.771C129.622 14 129.496 13.9767 129.393 13.93C129.295 13.8787 129.199 13.7947 129.106 13.678L123.821 6.93C123.849 7.238 123.863 7.52267 123.863 7.784V14H122.204V3.878H123.191C123.27 3.878 123.338 3.88267 123.394 3.892C123.455 3.89667 123.506 3.91067 123.548 3.934C123.595 3.95267 123.639 3.983 123.681 4.025C123.723 4.06233 123.77 4.11367 123.821 4.179L129.127 10.955C129.113 10.7917 129.101 10.6307 129.092 10.472C129.083 10.3133 129.078 10.1663 129.078 10.031V3.878H130.737ZM144.524 3.878V14H142.634V9.576H137.881V14H135.991V3.878H137.881V8.232H142.634V3.878H144.524Z" fill="url(#paint0_linear_1_11669)"/>
<rect y="8" width="33" height="1" rx="0.5" fill="url(#paint1_linear_1_11669)"/>
<rect x="158" y="8" width="33" height="1" rx="0.5" fill="url(#paint2_linear_1_11669)"/>
<defs>
<linearGradient id="paint0_linear_1_11669" x1="45" y1="0" x2="50.5651" y2="33.0633" gradientUnits="userSpaceOnUse">
<stop stop-color="#3EED8B"/>
<stop offset="1" stop-color="#0A9949"/>
</linearGradient>
<linearGradient id="paint1_linear_1_11669" x1="0" y1="8" x2="0.0605505" y2="9.99817" gradientUnits="userSpaceOnUse">
<stop stop-color="#3EED8B"/>
<stop offset="1" stop-color="#0A9949"/>
</linearGradient>
<linearGradient id="paint2_linear_1_11669" x1="158" y1="8" x2="158.061" y2="9.99817" gradientUnits="userSpaceOnUse">
<stop stop-color="#3EED8B"/>
<stop offset="1" stop-color="#0A9949"/>
</linearGradient>
</defs>
</svg>
