<svg width="102" height="383" viewBox="0 0 102 383" fill="none" xmlns="http://www.w3.org/2000/svg">
<path opacity="0.7" d="M80.7673 124.665C83.2507 124.665 85.2644 126.678 85.2644 129.168C85.2644 131.657 83.2507 133.671 80.7673 133.671C78.278 133.671 76.2641 131.657 76.2641 129.168C76.2641 126.678 78.278 124.665 80.7673 124.665Z" fill="#FFC700"/>
<path opacity="0.7" d="M80.7673 83.1098C83.2507 83.1098 85.2644 85.1235 85.2644 87.6128C85.2644 90.0962 83.2507 92.1159 80.7673 92.1159C78.278 92.1159 76.2641 90.1021 76.2641 87.6128C76.2641 85.1294 78.278 83.1098 80.7673 83.1098Z" fill="#FFC700"/>
<path opacity="0.7" d="M80.7673 41.5549C83.2507 41.5549 85.2644 43.5687 85.2644 46.058C85.2644 48.5414 83.2507 50.561 80.7673 50.561C78.278 50.561 76.2641 48.5473 76.2641 46.058C76.2641 43.5745 78.278 41.5549 80.7673 41.5549Z" fill="#FFC700"/>
<path opacity="0.7" d="M80.7673 -8.02255e-06C83.2507 -7.80544e-06 85.2644 2.01377 85.2644 4.50307C85.2644 6.9865 83.2507 9.00607 80.7673 9.00607C78.278 9.00607 76.2641 6.99237 76.2641 4.50307C76.2641 2.01964 78.278 -8.24017e-06 80.7673 -8.02255e-06Z" fill="#FFC700"/>
<path opacity="0.7" d="M42.635 124.665C45.1185 124.665 47.1382 126.678 47.1382 129.168C47.1382 131.657 45.1185 133.671 42.635 133.671C40.1457 133.671 38.132 131.657 38.132 129.168C38.132 126.678 40.1457 124.665 42.635 124.665Z" fill="#FFC700"/>
<path opacity="0.7" d="M42.635 83.1098C45.1185 83.1098 47.1382 85.1235 47.1382 87.6128C47.1382 90.0962 45.1185 92.1159 42.635 92.1159C40.1457 92.1159 38.132 90.1021 38.132 87.6128C38.132 85.1294 40.1457 83.1098 42.635 83.1098Z" fill="#FFC700"/>
<path opacity="0.7" d="M42.635 41.5549C45.1185 41.5549 47.1382 43.5687 47.1382 46.058C47.1382 48.5414 45.1185 50.561 42.635 50.561C40.1457 50.561 38.132 48.5473 38.132 46.058C38.132 43.5745 40.1457 41.5549 42.635 41.5549Z" fill="#FFC700"/>
<path opacity="0.7" d="M42.635 -8.02307e-06C45.1185 -7.80596e-06 47.1382 2.01377 47.1382 4.50307C47.1382 6.9865 45.1185 9.00607 42.635 9.00607C40.1457 9.00607 38.132 6.99237 38.132 4.50307C38.132 2.01964 40.1457 -8.24069e-06 42.635 -8.02307e-06Z" fill="#FFC700"/>
<path opacity="0.7" d="M4.50296 124.665C6.98639 124.665 9.0061 126.678 9.0061 129.168C9.0061 131.657 6.99226 133.671 4.50296 133.671C2.01953 133.671 -4.84613e-05 131.657 -4.82437e-05 129.168C-4.80261e-05 126.678 2.01953 124.665 4.50296 124.665Z" fill="#FFC700"/>
<path opacity="0.7" d="M4.50296 83.1098C6.98639 83.1098 9.0061 85.1235 9.0061 87.6128C9.0061 90.0962 6.99226 92.1158 4.50296 92.1158C2.01953 92.1158 -4.84613e-05 90.1021 -4.82437e-05 87.6128C-4.80266e-05 85.1293 2.01953 83.1098 4.50296 83.1098Z" fill="#FFC700"/>
<path opacity="0.7" d="M4.50296 41.5549C6.98639 41.5549 9.0061 43.5686 9.0061 46.0579C9.0061 48.5414 6.99226 50.5609 4.50296 50.5609C2.01953 50.5609 -4.84613e-05 48.5472 -4.82437e-05 46.0579C-4.80266e-05 43.5745 2.01953 41.5549 4.50296 41.5549Z" fill="#FFC700"/>
<path opacity="0.7" d="M4.5032 -3.85407e-05C6.98663 -3.83235e-05 9.00635 2.01374 9.00635 4.50304C9.00635 6.98647 6.9925 9.00604 4.5032 9.00604C2.01977 9.00604 0.000195679 6.99234 0.000195897 4.50304C0.000196114 2.01961 2.01977 -3.87578e-05 4.5032 -3.85407e-05Z" fill="#FFC700"/>
<path opacity="0.7" d="M80.7673 249.329C83.2507 249.329 85.2644 251.343 85.2644 253.832C85.2644 256.316 83.2507 258.335 80.7673 258.335C78.278 258.335 76.2641 256.322 76.2641 253.832C76.2641 251.343 78.278 249.329 80.7673 249.329Z" fill="#FFC700"/>
<path opacity="0.7" d="M80.7673 207.774C83.2507 207.774 85.2644 209.788 85.2644 212.277C85.2644 214.761 83.2507 216.78 80.7673 216.78C78.278 216.78 76.2641 214.767 76.2641 212.277C76.2641 209.788 78.278 207.774 80.7673 207.774Z" fill="#FFC700"/>
<path opacity="0.7" d="M80.7673 166.22C83.2507 166.22 85.2644 168.233 85.2644 170.723C85.2644 173.206 83.2507 175.226 80.7673 175.226C78.278 175.226 76.2641 173.212 76.2641 170.723C76.2641 168.233 78.278 166.22 80.7673 166.22Z" fill="#FFC700"/>
<path opacity="0.7" d="M42.635 249.329C45.1185 249.329 47.1382 251.343 47.1382 253.832C47.1382 256.316 45.1243 258.335 42.635 258.335C40.1457 258.335 38.132 256.322 38.132 253.832C38.132 251.343 40.1457 249.329 42.635 249.329Z" fill="#FFC700"/>
<path opacity="0.7" d="M42.635 207.774C45.1185 207.774 47.1382 209.788 47.1382 212.277C47.1382 214.767 45.1243 216.78 42.635 216.78C40.1457 216.78 38.132 214.767 38.132 212.277C38.132 209.788 40.1457 207.774 42.635 207.774Z" fill="#FFC700"/>
<path opacity="0.7" d="M42.635 166.22C45.1185 166.22 47.1382 168.233 47.1382 170.723C47.1382 173.212 45.1185 175.226 42.635 175.226C40.1457 175.226 38.132 173.212 38.132 170.723C38.132 168.233 40.1457 166.22 42.635 166.22Z" fill="#FFC700"/>
<path opacity="0.7" d="M4.50296 249.329C6.98639 249.329 9.0061 251.343 9.0061 253.832C9.0061 256.316 6.99226 258.335 4.50296 258.335C2.01953 258.335 -4.84613e-05 256.322 -4.82437e-05 253.832C-4.80261e-05 251.343 2.01953 249.329 4.50296 249.329Z" fill="#FFC700"/>
<path opacity="0.7" d="M4.50296 207.774C6.98639 207.774 9.0061 209.788 9.0061 212.277C9.0061 214.767 6.99226 216.78 4.50296 216.78C2.01953 216.78 -4.84613e-05 214.767 -4.82437e-05 212.277C-4.80261e-05 209.788 2.01953 207.774 4.50296 207.774Z" fill="#FFC700"/>
<path opacity="0.7" d="M4.50296 166.219C6.98639 166.219 9.0061 168.233 9.0061 170.723C9.0061 173.212 6.99226 175.226 4.50296 175.226C2.01953 175.226 -4.84613e-05 173.212 -4.82437e-05 170.723C-4.80261e-05 168.233 2.01953 166.219 4.50296 166.219Z" fill="#FFC700"/>
<path opacity="0.7" d="M80.7673 373.994C83.2507 373.994 85.2644 376.008 85.2644 378.497C85.2644 380.98 83.2507 383 80.7673 383C78.278 383 76.2641 380.986 76.2641 378.497C76.2641 376.008 78.278 373.994 80.7673 373.994Z" fill="#FFC700"/>
<path opacity="0.7" d="M80.7673 332.439C83.2507 332.439 85.2644 334.453 85.2644 336.942C85.2644 339.431 83.2507 341.445 80.7673 341.445C78.278 341.445 76.2641 339.431 76.2641 336.942C76.2641 334.453 78.278 332.439 80.7673 332.439Z" fill="#FFC700"/>
<path opacity="0.7" d="M80.7673 290.884C83.2507 290.884 85.2644 292.898 85.2644 295.387C85.2644 297.876 83.2507 299.89 80.7673 299.89C78.278 299.89 76.2641 297.876 76.2641 295.387C76.2641 292.898 78.278 290.884 80.7673 290.884Z" fill="#FFC700"/>
<path opacity="0.7" d="M42.635 373.994C45.1185 373.994 47.1382 376.008 47.1382 378.497C47.1382 380.98 45.1243 383 42.635 383C40.1457 383 38.132 380.986 38.132 378.497C38.132 376.008 40.1457 373.994 42.635 373.994Z" fill="#FFC700"/>
<path opacity="0.7" d="M42.635 332.439C45.1185 332.439 47.1382 334.453 47.1382 336.942C47.1382 339.431 45.1243 341.445 42.635 341.445C40.1457 341.445 38.132 339.431 38.132 336.942C38.132 334.453 40.1457 332.439 42.635 332.439Z" fill="#FFC700"/>
<path opacity="0.7" d="M42.635 290.884C45.1185 290.884 47.1382 292.898 47.1382 295.387C47.1382 297.876 45.1243 299.89 42.635 299.89C40.1457 299.89 38.132 297.876 38.132 295.387C38.132 292.898 40.1457 290.884 42.635 290.884Z" fill="#FFC700"/>
<path opacity="0.7" d="M4.50296 373.994C6.98639 373.994 9.0061 376.008 9.0061 378.497C9.0061 380.98 6.99226 383 4.50296 383C2.01366 383 -4.84613e-05 380.986 -4.82437e-05 378.497C0.00582279 376.008 2.01953 373.994 4.50296 373.994Z" fill="#FFC700"/>
<path opacity="0.7" d="M4.50296 332.439C6.98639 332.439 9.0061 334.453 9.0061 336.942C9.0061 339.431 6.99226 341.445 4.50296 341.445C2.01366 341.445 -4.84613e-05 339.431 -4.82437e-05 336.942C0.00582279 334.453 2.01953 332.439 4.50296 332.439Z" fill="#FFC700"/>
<path opacity="0.7" d="M4.50296 290.884C6.98639 290.884 9.0061 292.898 9.0061 295.387C9.0061 297.876 6.99226 299.89 4.50296 299.89C2.01366 299.89 -4.84613e-05 297.876 -4.82437e-05 295.387C0.00582279 292.898 2.01953 290.884 4.50296 290.884Z" fill="#FFC700"/>
</svg>
