<svg width="113" height="49" viewBox="0 0 113 49" fill="none" xmlns="http://www.w3.org/2000/svg">
<path fill-rule="evenodd" clip-rule="evenodd" d="M107.775 22.7492C110.537 22.7492 112.775 20.5107 112.775 17.7492C112.775 14.9878 110.537 12.7492 107.775 12.7492C103.387 12.7492 101.388 10.913 98.1877 7.79401L98.0583 7.66783C94.73 4.42243 90.1946 -9.87038e-07 81.6203 -1.36183e-06C73.0464 -1.73661e-06 68.5125 4.4221 65.1852 7.66728L65.0549 7.79443C61.8566 10.9124 59.8572 12.7492 55.4652 12.7492C51.0733 12.7492 49.0739 10.9124 45.8756 7.79443L45.7452 7.66728C42.418 4.4221 37.884 -3.27361e-06 29.3102 -3.64838e-06C20.7316 -4.02336e-06 16.1964 4.42332 12.8677 7.66981L12.7399 7.79443C9.54048 10.9136 7.54304 12.7492 3.15509 12.7492C-1.23683 12.7492 -3.23626 10.9124 -6.43453 7.79443L-6.56492 7.66728C-9.89217 4.4221 -14.4261 -5.56015e-06 -23 -5.93493e-06C-25.7614 -6.05564e-06 -28 2.23857 -28 4.99999C-28 7.76142 -25.7614 9.99999 -23 9.99999C-18.612 9.99999 -16.6146 11.8357 -13.4152 14.9548L-13.2874 15.0794C-9.9587 18.3259 -5.42343 22.7492 3.15509 22.7492C11.729 22.7492 16.2629 18.3271 19.5902 15.082L19.7205 14.9548C22.9188 11.8368 24.9182 10 29.3102 10C33.6981 10 35.6956 11.8357 38.895 14.9548L39.0228 15.0794C42.3514 18.3259 46.8867 22.7492 55.4652 22.7492C64.0438 22.7492 68.579 18.3259 71.9077 15.0794L72.0355 14.9548C75.2349 11.8357 77.2324 10 81.6203 10C86.0087 10 88.0079 11.8363 91.208 14.9552L91.3374 15.0814C94.6657 18.3268 99.2011 22.7492 107.775 22.7492ZM107.775 48.2477C110.537 48.2477 112.775 46.0092 112.775 43.2477C112.775 40.4863 110.537 38.2477 107.775 38.2477C103.387 38.2477 101.388 36.4115 98.1877 33.2925L98.0583 33.1663C94.73 29.9209 90.1946 25.4985 81.6203 25.4985C73.0464 25.4985 68.5125 29.9206 65.1852 33.1658L65.0549 33.2929C61.8566 36.4109 59.8572 38.2477 55.4652 38.2477C51.0733 38.2477 49.0739 36.4109 45.8756 33.2929L45.7452 33.1658C42.418 29.9206 37.884 25.4985 29.3102 25.4985C20.7316 25.4985 16.1964 29.9218 12.8677 33.1683L12.7399 33.2929C9.54048 36.412 7.54304 38.2477 3.15509 38.2477C-1.23683 38.2477 -3.23626 36.4109 -6.43453 33.2929L-6.56492 33.1658C-9.89217 29.9206 -14.4261 25.4985 -23 25.4985C-25.7614 25.4985 -28 27.7371 -28 30.4985C-28 33.2599 -25.7614 35.4985 -23 35.4985C-18.612 35.4985 -16.6146 37.3342 -13.4152 40.4533L-13.2874 40.5779C-9.9587 43.8244 -5.42343 48.2477 3.15509 48.2477C11.729 48.2477 16.2629 43.8256 19.5902 40.5804L19.7205 40.4533C22.9188 37.3353 24.9182 35.4985 29.3102 35.4985C33.6981 35.4985 35.6956 37.3342 38.895 40.4533L39.0228 40.5779C42.3514 43.8244 46.8867 48.2477 55.4652 48.2477C64.0438 48.2477 68.579 43.8244 71.9077 40.5779L72.0355 40.4533C75.2349 37.3342 77.2324 35.4985 81.6203 35.4985C86.0087 35.4985 88.0079 37.3347 91.208 40.4537L91.3374 40.5799C94.6657 43.8253 99.2011 48.2477 107.775 48.2477Z" fill="url(#paint0_linear_1_12461)"/>
<defs>
<linearGradient id="paint0_linear_1_12461" x1="42.3877" y1="-3.07674e-06" x2="42.3877" y2="48.2477" gradientUnits="userSpaceOnUse">
<stop stop-color="#16A085"/>
<stop offset="1" stop-color="#F4D03F"/>
</linearGradient>
</defs>
</svg>
