<svg width="147" height="17" viewBox="0 0 147 17" fill="none" xmlns="http://www.w3.org/2000/svg">
<path d="M93.222 2.856C93.25 2.95867 93.2733 3.08 93.292 3.22C93.3107 3.36 93.32 3.50467 93.32 3.654C93.32 4.00867 93.2593 4.34 93.138 4.648C93.0167 4.956 92.8347 5.22433 92.592 5.453C92.3493 5.677 92.0437 5.85667 91.675 5.992C91.311 6.12267 90.884 6.19033 90.394 6.195V9.94C90.394 10.542 90.296 11.0997 90.1 11.613C89.9087 12.1217 89.631 12.5627 89.267 12.936C88.9077 13.3047 88.469 13.594 87.951 13.804C87.433 14.0093 86.8497 14.112 86.201 14.112C85.5477 14.112 84.962 14.0093 84.444 13.804C83.926 13.594 83.485 13.3047 83.121 12.936C82.7617 12.5627 82.484 12.1217 82.288 11.613C82.0967 11.0997 82.001 10.542 82.001 9.94V3.878H83.884V9.933C83.884 10.3203 83.9353 10.6703 84.038 10.983C84.1453 11.2957 84.297 11.564 84.493 11.788C84.6937 12.0073 84.9363 12.1777 85.221 12.299C85.5103 12.4203 85.837 12.481 86.201 12.481C86.565 12.481 86.8893 12.4203 87.174 12.299C87.4633 12.1777 87.706 12.0073 87.902 11.788C88.098 11.5687 88.2473 11.3027 88.35 10.99C88.4573 10.6773 88.511 10.3273 88.511 9.94V3.878H90.394V5.32C90.8047 5.31067 91.115 5.23367 91.325 5.089C91.5397 4.93967 91.647 4.75533 91.647 4.536C91.647 4.44733 91.6307 4.37033 91.598 4.305C91.57 4.23967 91.5373 4.17433 91.5 4.109C91.4627 4.039 91.4277 3.96433 91.395 3.885C91.367 3.801 91.353 3.703 91.353 3.591C91.353 3.34833 91.43 3.16633 91.584 3.045C91.738 2.919 91.976 2.856 92.298 2.856H93.222ZM101.369 12.481C101.733 12.481 102.057 12.4203 102.342 12.299C102.631 12.1777 102.874 12.0073 103.07 11.788C103.266 11.5687 103.415 11.3027 103.518 10.99C103.625 10.6773 103.679 10.3273 103.679 9.94V3.878H105.562V9.94C105.562 10.542 105.464 11.0997 105.268 11.613C105.077 12.1217 104.799 12.5627 104.435 12.936C104.076 13.3047 103.637 13.594 103.119 13.804C102.601 14.0093 102.018 14.112 101.369 14.112C100.716 14.112 100.13 14.0093 99.612 13.804C99.094 13.594 98.653 13.3047 98.289 12.936C97.9296 12.5627 97.652 12.1217 97.456 11.613C97.2646 11.0997 97.169 10.542 97.169 9.94V3.878H99.052V9.933C99.052 10.3203 99.1033 10.6703 99.206 10.983C99.3133 11.2957 99.465 11.564 99.661 11.788C99.8616 12.0073 100.104 12.1777 100.389 12.299C100.678 12.4203 101.005 12.481 101.369 12.481ZM121.08 12.502C121.575 12.502 122.018 12.4203 122.41 12.257C122.807 12.0937 123.143 11.8603 123.418 11.557C123.693 11.249 123.906 10.8757 124.055 10.437C124.204 9.99367 124.279 9.49433 124.279 8.939C124.279 8.38367 124.204 7.88667 124.055 7.448C123.906 7.00467 123.693 6.63133 123.418 6.328C123.143 6.02 122.807 5.78433 122.41 5.621C122.018 5.45767 121.575 5.376 121.08 5.376H119.113V8.372H120.975V9.443H119.113V12.502H121.08ZM121.08 3.878C121.85 3.878 122.55 4.004 123.18 4.256C123.81 4.50333 124.349 4.851 124.797 5.299C125.245 5.74233 125.593 6.27433 125.84 6.895C126.087 7.51567 126.211 8.197 126.211 8.939C126.211 9.681 126.087 10.3623 125.84 10.983C125.593 11.6037 125.245 12.138 124.797 12.586C124.349 13.034 123.81 13.3817 123.18 13.629C122.55 13.8763 121.85 14 121.08 14H117.223V9.443H115.956V8.372H117.223V3.878H121.08ZM135.897 10.178L134.665 6.811C134.604 6.66167 134.541 6.48433 134.476 6.279C134.411 6.07367 134.345 5.852 134.28 5.614C134.219 5.852 134.156 6.076 134.091 6.286C134.026 6.49133 133.963 6.671 133.902 6.825L132.677 10.178H135.897ZM139.222 14H137.766C137.603 14 137.47 13.9603 137.367 13.881C137.264 13.797 137.187 13.6943 137.136 13.573L136.38 11.508H132.187L131.431 13.573C131.394 13.6803 131.321 13.7783 131.214 13.867C131.107 13.9557 130.974 14 130.815 14H129.345L133.328 3.878H135.246L139.222 14ZM135.155 2.107C135.258 2.107 135.346 2.086 135.421 2.044C135.5 2.002 135.563 1.95067 135.61 1.89C135.661 1.82467 135.699 1.75467 135.722 1.68C135.745 1.60067 135.757 1.52367 135.757 1.449H136.814C136.814 1.68233 136.781 1.90633 136.716 2.121C136.655 2.331 136.562 2.52 136.436 2.688C136.315 2.85133 136.163 2.982 135.981 3.08C135.804 3.178 135.598 3.227 135.365 3.227C135.127 3.227 134.919 3.18967 134.742 3.115C134.569 3.04033 134.411 2.961 134.266 2.877C134.121 2.78833 133.988 2.70667 133.867 2.632C133.75 2.55733 133.629 2.52 133.503 2.52C133.396 2.52 133.305 2.541 133.23 2.583C133.155 2.625 133.095 2.67867 133.048 2.744C133.001 2.80933 132.966 2.88167 132.943 2.961C132.92 3.04033 132.908 3.11733 132.908 3.192H131.837C131.837 2.96333 131.87 2.74167 131.935 2.527C132 2.30767 132.094 2.11633 132.215 1.953C132.341 1.785 132.493 1.652 132.67 1.554C132.852 1.45133 133.06 1.4 133.293 1.4C133.531 1.4 133.739 1.43733 133.916 1.512C134.093 1.58667 134.252 1.66833 134.392 1.757C134.532 1.841 134.663 1.92033 134.784 1.995C134.905 2.06967 135.029 2.107 135.155 2.107ZM145.16 14H143.27V3.878H145.16V14Z" fill="url(#paint0_linear_1_12025)"/>
<rect y="8" width="69" height="1" rx="0.5" fill="url(#paint1_linear_1_12025)"/>
<defs>
<linearGradient id="paint0_linear_1_12025" x1="81" y1="0" x2="89.2127" y2="31.8846" gradientUnits="userSpaceOnUse">
<stop stop-color="#3EED8B"/>
<stop offset="1" stop-color="#0A9949"/>
</linearGradient>
<linearGradient id="paint1_linear_1_12025" x1="0" y1="8" x2="0.0289794" y2="9.99958" gradientUnits="userSpaceOnUse">
<stop stop-color="#3EED8B"/>
<stop offset="1" stop-color="#0A9949"/>
</linearGradient>
</defs>
</svg>
