<svg width="193" height="72" viewBox="0 0 193 72" fill="none" xmlns="http://www.w3.org/2000/svg">
<g filter="url(#filter0_d_1_11897)">
<rect x="16" y="8" width="161" height="40" rx="20" fill="url(#paint0_linear_1_11897)"/>
</g>
<path d="M68.7146 28.2V32.88C68.128 33.312 67.5013 33.6293 66.8346 33.832C66.1733 34.0293 65.464 34.128 64.7066 34.128C63.7626 34.128 62.9066 33.9813 62.1386 33.688C61.376 33.3947 60.7226 32.9867 60.1786 32.464C59.64 31.9413 59.224 31.3173 58.9306 30.592C58.6373 29.8667 58.4906 29.0747 58.4906 28.216C58.4906 27.3467 58.632 26.5493 58.9146 25.824C59.1973 25.0987 59.5973 24.4747 60.1146 23.952C60.6373 23.4293 61.2693 23.024 62.0106 22.736C62.752 22.448 63.584 22.304 64.5066 22.304C64.976 22.304 65.4133 22.3413 65.8186 22.416C66.2293 22.4907 66.608 22.5947 66.9546 22.728C67.3066 22.856 67.6266 23.0133 67.9146 23.2C68.2026 23.3867 68.4666 23.592 68.7066 23.816L68.0906 24.792C67.9946 24.9467 67.8693 25.0427 67.7146 25.08C67.56 25.112 67.392 25.072 67.2106 24.96C67.0346 24.8587 66.8586 24.7573 66.6826 24.656C66.5066 24.5547 66.3093 24.4667 66.0906 24.392C65.8773 24.3173 65.6346 24.256 65.3626 24.208C65.096 24.16 64.7866 24.136 64.4346 24.136C63.864 24.136 63.3466 24.232 62.8826 24.424C62.424 24.616 62.032 24.8907 61.7066 25.248C61.3813 25.6053 61.1306 26.0347 60.9546 26.536C60.7786 27.0373 60.6906 27.5973 60.6906 28.216C60.6906 28.8773 60.784 29.4693 60.9706 29.992C61.1626 30.5093 61.4293 30.9493 61.7706 31.312C62.1173 31.6693 62.5333 31.944 63.0186 32.136C63.504 32.3227 64.0453 32.416 64.6426 32.416C65.0693 32.416 65.4506 32.3707 65.7866 32.28C66.1226 32.1893 66.4506 32.0667 66.7706 31.912V29.816H65.3146C65.176 29.816 65.0666 29.7787 64.9866 29.704C64.912 29.624 64.8746 29.528 64.8746 29.416V28.2H68.7146ZM74.0143 25.664C74.6223 25.664 75.1743 25.7627 75.6703 25.96C76.1716 26.1573 76.5983 26.4373 76.9503 26.8C77.3076 27.1627 77.5822 27.6053 77.7743 28.128C77.9663 28.6507 78.0623 29.2347 78.0623 29.88C78.0623 30.5307 77.9663 31.1173 77.7743 31.64C77.5822 32.1627 77.3076 32.608 76.9503 32.976C76.5983 33.344 76.1716 33.6267 75.6703 33.824C75.1743 34.0213 74.6223 34.12 74.0143 34.12C73.4009 34.12 72.8436 34.0213 72.3423 33.824C71.8409 33.6267 71.4116 33.344 71.0543 32.976C70.7023 32.608 70.4276 32.1627 70.2303 31.64C70.0383 31.1173 69.9423 30.5307 69.9423 29.88C69.9423 29.2347 70.0383 28.6507 70.2303 28.128C70.4276 27.6053 70.7023 27.1627 71.0543 26.8C71.4116 26.4373 71.8409 26.1573 72.3423 25.96C72.8436 25.7627 73.4009 25.664 74.0143 25.664ZM74.0143 32.6C74.6969 32.6 75.2009 32.3707 75.5263 31.912C75.8569 31.4533 76.0223 30.7813 76.0223 29.896C76.0223 29.0107 75.8569 28.336 75.5263 27.872C75.2009 27.408 74.6969 27.176 74.0143 27.176C73.3209 27.176 72.8063 27.4107 72.4703 27.88C72.1396 28.344 71.9743 29.016 71.9743 29.896C71.9743 30.776 72.1396 31.448 72.4703 31.912C72.8063 32.3707 73.3209 32.6 74.0143 32.6ZM75.1423 35.904C75.1423 36.0533 75.1103 36.1947 75.0463 36.328C74.9876 36.4613 74.9076 36.5787 74.8063 36.68C74.7049 36.7813 74.5849 36.8613 74.4463 36.92C74.3076 36.9787 74.1636 37.008 74.0143 37.008C73.8649 37.008 73.7236 36.9787 73.5903 36.92C73.4569 36.8613 73.3396 36.7813 73.2383 36.68C73.1423 36.5787 73.0649 36.4613 73.0063 36.328C72.9476 36.1947 72.9183 36.0533 72.9183 35.904C72.9183 35.7547 72.9476 35.6107 73.0063 35.472C73.0649 35.3387 73.1423 35.2213 73.2383 35.12C73.3396 35.024 73.4569 34.9467 73.5903 34.888C73.7236 34.8293 73.8649 34.8 74.0143 34.8C74.1636 34.8 74.3076 34.8293 74.4463 34.888C74.5849 34.9467 74.7049 35.024 74.8063 35.12C74.9076 35.2213 74.9876 35.3387 75.0463 35.472C75.1103 35.6107 75.1423 35.7547 75.1423 35.904ZM81.6178 25.792V34H79.6338V25.792H81.6178ZM81.8898 23.4C81.8898 23.5707 81.8551 23.7307 81.7858 23.88C81.7164 24.0293 81.6231 24.16 81.5058 24.272C81.3938 24.384 81.2604 24.4747 81.1058 24.544C80.9511 24.608 80.7858 24.64 80.6098 24.64C80.4391 24.64 80.2764 24.608 80.1218 24.544C79.9724 24.4747 79.8418 24.384 79.7298 24.272C79.6178 24.16 79.5271 24.0293 79.4578 23.88C79.3938 23.7307 79.3618 23.5707 79.3618 23.4C79.3618 23.224 79.3938 23.0587 79.4578 22.904C79.5271 22.7493 79.6178 22.616 79.7298 22.504C79.8418 22.392 79.9724 22.304 80.1218 22.24C80.2764 22.1707 80.4391 22.136 80.6098 22.136C80.7858 22.136 80.9511 22.1707 81.1058 22.24C81.2604 22.304 81.3938 22.392 81.5058 22.504C81.6231 22.616 81.7164 22.7493 81.7858 22.904C81.8551 23.0587 81.8898 23.224 81.8898 23.4ZM94.8269 32.52V34H88.4269V32.52H90.7709V25.776C90.7709 25.5093 90.7789 25.2347 90.7949 24.952L89.1309 26.344C89.0349 26.4187 88.9389 26.4667 88.8429 26.488C88.7522 26.504 88.6642 26.504 88.5789 26.488C88.4989 26.472 88.4269 26.4453 88.3629 26.408C88.2989 26.3653 88.2509 26.32 88.2189 26.272L87.5949 25.416L91.1229 22.416H92.7469V32.52H94.8269ZM98.4681 25.904C98.4681 26.5493 98.6335 27.0427 98.9641 27.384C99.3001 27.72 99.7748 27.888 100.388 27.888C100.708 27.888 100.993 27.8373 101.244 27.736C101.495 27.6347 101.705 27.496 101.876 27.32C102.047 27.144 102.175 26.936 102.26 26.696C102.351 26.456 102.396 26.1973 102.396 25.92C102.396 25.6053 102.348 25.3253 102.252 25.08C102.156 24.8293 102.02 24.6187 101.844 24.448C101.668 24.2773 101.457 24.1467 101.212 24.056C100.972 23.9653 100.708 23.92 100.42 23.92C100.121 23.92 99.8521 23.9707 99.6121 24.072C99.3721 24.168 99.1668 24.304 98.9961 24.48C98.8255 24.656 98.6948 24.8667 98.6041 25.112C98.5135 25.352 98.4681 25.616 98.4681 25.904ZM101.092 29.512C101.183 29.4 101.268 29.2907 101.348 29.184C101.428 29.0773 101.505 28.9707 101.58 28.864C101.313 29.0347 101.02 29.1653 100.7 29.256C100.38 29.3413 100.044 29.384 99.6921 29.384C99.2921 29.384 98.9001 29.3147 98.5161 29.176C98.1321 29.0373 97.7908 28.8293 97.4921 28.552C97.1935 28.2693 96.9508 27.9227 96.7641 27.512C96.5828 27.096 96.4921 26.6107 96.4921 26.056C96.4921 25.5387 96.5881 25.0533 96.7801 24.6C96.9721 24.1467 97.2415 23.7493 97.5881 23.408C97.9348 23.0667 98.3508 22.7973 98.8361 22.6C99.3215 22.4027 99.8575 22.304 100.444 22.304C101.036 22.304 101.567 22.3973 102.036 22.584C102.511 22.7707 102.913 23.032 103.244 23.368C103.58 23.704 103.836 24.1067 104.012 24.576C104.193 25.0453 104.284 25.56 104.284 26.12C104.284 26.4773 104.252 26.816 104.188 27.136C104.129 27.456 104.044 27.7653 103.932 28.064C103.82 28.3573 103.684 28.6453 103.524 28.928C103.364 29.2107 103.185 29.4907 102.988 29.768L100.34 33.544C100.249 33.672 100.113 33.7813 99.9321 33.872C99.7508 33.9573 99.5455 34 99.3161 34H97.5001L101.092 29.512ZM113.989 28.216C113.989 29.224 113.88 30.1013 113.661 30.848C113.448 31.5893 113.149 32.2027 112.765 32.688C112.387 33.1733 111.936 33.536 111.413 33.776C110.896 34.0107 110.336 34.128 109.733 34.128C109.131 34.128 108.571 34.0107 108.053 33.776C107.541 33.536 107.096 33.1733 106.717 32.688C106.339 32.2027 106.043 31.5893 105.829 30.848C105.616 30.1013 105.509 29.224 105.509 28.216C105.509 27.2027 105.616 26.3253 105.829 25.584C106.043 24.8427 106.339 24.2293 106.717 23.744C107.096 23.2587 107.541 22.8987 108.053 22.664C108.571 22.424 109.131 22.304 109.733 22.304C110.336 22.304 110.896 22.424 111.413 22.664C111.936 22.8987 112.387 23.2587 112.765 23.744C113.149 24.2293 113.448 24.8427 113.661 25.584C113.88 26.3253 113.989 27.2027 113.989 28.216ZM111.949 28.216C111.949 27.3787 111.888 26.6853 111.765 26.136C111.643 25.5867 111.477 25.1493 111.269 24.824C111.067 24.4987 110.832 24.272 110.565 24.144C110.299 24.0107 110.021 23.944 109.733 23.944C109.451 23.944 109.176 24.0107 108.909 24.144C108.648 24.272 108.416 24.4987 108.213 24.824C108.011 25.1493 107.848 25.5867 107.725 26.136C107.608 26.6853 107.549 27.3787 107.549 28.216C107.549 29.0533 107.608 29.7467 107.725 30.296C107.848 30.8453 108.011 31.2827 108.213 31.608C108.416 31.9333 108.648 32.1627 108.909 32.296C109.176 32.424 109.451 32.488 109.733 32.488C110.021 32.488 110.299 32.424 110.565 32.296C110.832 32.1627 111.067 31.9333 111.269 31.608C111.477 31.2827 111.643 30.8453 111.765 30.296C111.888 29.7467 111.949 29.0533 111.949 28.216ZM123.271 28.216C123.271 29.224 123.161 30.1013 122.943 30.848C122.729 31.5893 122.431 32.2027 122.047 32.688C121.668 33.1733 121.217 33.536 120.695 33.776C120.177 34.0107 119.617 34.128 119.015 34.128C118.412 34.128 117.852 34.0107 117.335 33.776C116.823 33.536 116.377 33.1733 115.999 32.688C115.62 32.2027 115.324 31.5893 115.111 30.848C114.897 30.1013 114.791 29.224 114.791 28.216C114.791 27.2027 114.897 26.3253 115.111 25.584C115.324 24.8427 115.62 24.2293 115.999 23.744C116.377 23.2587 116.823 22.8987 117.335 22.664C117.852 22.424 118.412 22.304 119.015 22.304C119.617 22.304 120.177 22.424 120.695 22.664C121.217 22.8987 121.668 23.2587 122.047 23.744C122.431 24.2293 122.729 24.8427 122.943 25.584C123.161 26.3253 123.271 27.2027 123.271 28.216ZM121.231 28.216C121.231 27.3787 121.169 26.6853 121.047 26.136C120.924 25.5867 120.759 25.1493 120.551 24.824C120.348 24.4987 120.113 24.272 119.847 24.144C119.58 24.0107 119.303 23.944 119.015 23.944C118.732 23.944 118.457 24.0107 118.191 24.144C117.929 24.272 117.697 24.4987 117.495 24.824C117.292 25.1493 117.129 25.5867 117.007 26.136C116.889 26.6853 116.831 27.3787 116.831 28.216C116.831 29.0533 116.889 29.7467 117.007 30.296C117.129 30.8453 117.292 31.2827 117.495 31.608C117.697 31.9333 117.929 32.1627 118.191 32.296C118.457 32.424 118.732 32.488 119.015 32.488C119.303 32.488 119.58 32.424 119.847 32.296C120.113 32.1627 120.348 31.9333 120.551 31.608C120.759 31.2827 120.924 30.8453 121.047 30.296C121.169 29.7467 121.231 29.0533 121.231 28.216ZM135.843 32.52V34H129.443V32.52H131.786V25.776C131.786 25.5093 131.795 25.2347 131.811 24.952L130.147 26.344C130.051 26.4187 129.955 26.4667 129.859 26.488C129.768 26.504 129.68 26.504 129.595 26.488C129.515 26.472 129.443 26.4453 129.379 26.408C129.315 26.3653 129.267 26.32 129.235 26.272L128.611 25.416L132.139 22.416H133.763V32.52H135.843ZM141.484 32.584C141.809 32.584 142.094 32.5387 142.34 32.448C142.585 32.352 142.79 32.2213 142.956 32.056C143.126 31.8907 143.254 31.6933 143.34 31.464C143.425 31.2347 143.468 30.9867 143.468 30.72C143.468 30.0853 143.292 29.6053 142.94 29.28C142.588 28.9547 142.102 28.792 141.484 28.792C140.865 28.792 140.38 28.9547 140.028 29.28C139.676 29.6053 139.5 30.0853 139.5 30.72C139.5 30.9867 139.542 31.2347 139.628 31.464C139.713 31.6933 139.838 31.8907 140.004 32.056C140.174 32.2213 140.382 32.352 140.628 32.448C140.873 32.5387 141.158 32.584 141.484 32.584ZM141.484 23.792C141.19 23.792 140.937 23.8373 140.724 23.928C140.51 24.0187 140.332 24.1413 140.188 24.296C140.049 24.4453 139.945 24.6187 139.876 24.816C139.812 25.0133 139.78 25.2213 139.78 25.44C139.78 25.6693 139.806 25.8933 139.86 26.112C139.918 26.3253 140.014 26.5173 140.148 26.688C140.281 26.8533 140.457 26.9867 140.676 27.088C140.894 27.1893 141.164 27.24 141.484 27.24C141.804 27.24 142.073 27.1893 142.292 27.088C142.51 26.9867 142.686 26.8533 142.82 26.688C142.953 26.5173 143.046 26.3253 143.1 26.112C143.158 25.8933 143.188 25.6693 143.188 25.44C143.188 25.2213 143.153 25.0133 143.084 24.816C143.014 24.6187 142.91 24.4453 142.772 24.296C142.633 24.1413 142.457 24.0187 142.244 23.928C142.03 23.8373 141.777 23.792 141.484 23.792ZM143.436 27.968C144.14 28.1973 144.66 28.5493 144.996 29.024C145.332 29.4933 145.5 30.0693 145.5 30.752C145.5 31.264 145.401 31.728 145.204 32.144C145.012 32.56 144.74 32.9147 144.388 33.208C144.036 33.5013 143.612 33.728 143.116 33.888C142.625 34.048 142.081 34.128 141.484 34.128C140.886 34.128 140.34 34.048 139.844 33.888C139.353 33.728 138.932 33.5013 138.58 33.208C138.228 32.9147 137.953 32.56 137.756 32.144C137.564 31.728 137.468 31.264 137.468 30.752C137.468 30.0693 137.636 29.4933 137.972 29.024C138.308 28.5493 138.828 28.1973 139.532 27.968C138.972 27.7333 138.55 27.4 138.268 26.968C137.99 26.536 137.852 26.016 137.852 25.408C137.852 24.9707 137.94 24.5627 138.116 24.184C138.297 23.8053 138.548 23.4773 138.868 23.2C139.188 22.9173 139.569 22.6987 140.012 22.544C140.46 22.384 140.95 22.304 141.484 22.304C142.017 22.304 142.505 22.384 142.948 22.544C143.396 22.6987 143.78 22.9173 144.1 23.2C144.42 23.4773 144.668 23.8053 144.844 24.184C145.025 24.5627 145.116 24.9707 145.116 25.408C145.116 26.016 144.974 26.536 144.692 26.968C144.414 27.4 143.996 27.7333 143.436 27.968ZM155.005 28.216C155.005 29.224 154.896 30.1013 154.677 30.848C154.464 31.5893 154.165 32.2027 153.781 32.688C153.402 33.1733 152.952 33.536 152.429 33.776C151.912 34.0107 151.352 34.128 150.749 34.128C150.146 34.128 149.586 34.0107 149.069 33.776C148.557 33.536 148.112 33.1733 147.733 32.688C147.354 32.2027 147.058 31.5893 146.845 30.848C146.632 30.1013 146.525 29.224 146.525 28.216C146.525 27.2027 146.632 26.3253 146.845 25.584C147.058 24.8427 147.354 24.2293 147.733 23.744C148.112 23.2587 148.557 22.8987 149.069 22.664C149.586 22.424 150.146 22.304 150.749 22.304C151.352 22.304 151.912 22.424 152.429 22.664C152.952 22.8987 153.402 23.2587 153.781 23.744C154.165 24.2293 154.464 24.8427 154.677 25.584C154.896 26.3253 155.005 27.2027 155.005 28.216ZM152.965 28.216C152.965 27.3787 152.904 26.6853 152.781 26.136C152.658 25.5867 152.493 25.1493 152.285 24.824C152.082 24.4987 151.848 24.272 151.581 24.144C151.314 24.0107 151.037 23.944 150.749 23.944C150.466 23.944 150.192 24.0107 149.925 24.144C149.664 24.272 149.432 24.4987 149.229 24.824C149.026 25.1493 148.864 25.5867 148.741 26.136C148.624 26.6853 148.565 27.3787 148.565 28.216C148.565 29.0533 148.624 29.7467 148.741 30.296C148.864 30.8453 149.026 31.2827 149.229 31.608C149.432 31.9333 149.664 32.1627 149.925 32.296C150.192 32.424 150.466 32.488 150.749 32.488C151.037 32.488 151.314 32.424 151.581 32.296C151.848 32.1627 152.082 31.9333 152.285 31.608C152.493 31.2827 152.658 30.8453 152.781 30.296C152.904 29.7467 152.965 29.0533 152.965 28.216ZM159.582 26.632L159.182 27.128C159.406 27.016 159.646 26.9307 159.902 26.872C160.164 26.808 160.444 26.776 160.742 26.776C161.18 26.776 161.604 26.848 162.014 26.992C162.43 27.136 162.796 27.3547 163.11 27.648C163.425 27.936 163.678 28.296 163.87 28.728C164.062 29.16 164.158 29.664 164.158 30.24C164.158 30.7787 164.06 31.2853 163.862 31.76C163.665 32.2293 163.388 32.64 163.03 32.992C162.673 33.344 162.241 33.6213 161.734 33.824C161.233 34.0267 160.678 34.128 160.07 34.128C159.452 34.128 158.897 34.0293 158.406 33.832C157.916 33.6347 157.497 33.36 157.15 33.008C156.804 32.6507 156.537 32.224 156.35 31.728C156.169 31.2267 156.078 30.672 156.078 30.064C156.078 29.52 156.188 28.9627 156.406 28.392C156.63 27.816 156.974 27.2187 157.438 26.6L160.198 22.896C160.294 22.768 160.433 22.6587 160.614 22.568C160.801 22.4773 161.014 22.432 161.254 22.432H163.014L159.582 26.632ZM160.03 32.512C160.345 32.512 160.633 32.4587 160.894 32.352C161.161 32.2453 161.388 32.096 161.574 31.904C161.766 31.712 161.916 31.488 162.022 31.232C162.129 30.9707 162.182 30.688 162.182 30.384C162.182 30.0533 162.132 29.7573 162.03 29.496C161.929 29.2293 161.785 29.0053 161.598 28.824C161.412 28.6373 161.188 28.496 160.926 28.4C160.665 28.304 160.377 28.256 160.062 28.256C159.748 28.256 159.462 28.3093 159.206 28.416C158.95 28.5227 158.732 28.672 158.55 28.864C158.369 29.0507 158.228 29.2747 158.126 29.536C158.025 29.792 157.974 30.0693 157.974 30.368C157.974 30.688 158.017 30.9813 158.102 31.248C158.193 31.5093 158.324 31.7333 158.494 31.92C158.67 32.1067 158.886 32.2533 159.142 32.36C159.398 32.4613 159.694 32.512 160.03 32.512Z" fill="white"/>
<circle cx="36" cy="28" r="14" fill="white"/>
<path fill-rule="evenodd" clip-rule="evenodd" d="M41.8043 31.842L40.8268 30.8645C40.3384 30.3761 39.5468 30.3761 39.0593 30.8645L38.2909 31.6328C38.1193 31.8045 37.8593 31.862 37.6376 31.7645C36.5243 31.277 35.4243 30.5378 34.4434 29.557C33.4668 28.5803 32.7301 27.4853 32.2418 26.3761C32.1401 26.147 32.1993 25.8778 32.3768 25.7003L33.0651 25.012C33.6243 24.4528 33.6243 23.662 33.1359 23.1736L32.1584 22.1961C31.5076 21.5453 30.4526 21.5453 29.8018 22.1961L29.2584 22.7386C28.6409 23.3561 28.3834 24.247 28.5501 25.1303C28.9618 27.3078 30.2268 29.692 32.2676 31.7328C34.3084 33.7736 36.6926 35.0386 38.8701 35.4503C39.7534 35.617 40.6443 35.3595 41.2618 34.742L41.8043 34.1995C42.4551 33.5486 42.4551 32.4936 41.8043 31.842V31.842Z" stroke="#E57709" stroke-width="1.5" stroke-linecap="round" stroke-linejoin="round"/>
<path d="M36.8335 23.826C37.6927 23.8143 38.556 24.1327 39.2118 24.7885" stroke="#E57709" stroke-width="1.5" stroke-linecap="round" stroke-linejoin="round"/>
<path d="M41.5685 22.4319C40.261 21.1244 38.5468 20.4702 36.8335 20.4702" stroke="#E57709" stroke-width="1.5" stroke-linecap="round" stroke-linejoin="round"/>
<path d="M40.1744 27.1669C40.1861 26.3077 39.8677 25.4444 39.2119 24.7886" stroke="#E57709" stroke-width="1.5" stroke-linecap="round" stroke-linejoin="round"/>
<path d="M41.5684 22.4316C42.8759 23.7391 43.53 25.4533 43.53 27.1666" stroke="#E57709" stroke-width="1.5" stroke-linecap="round" stroke-linejoin="round"/>
<defs>
<filter id="filter0_d_1_11897" x="0" y="0" width="193" height="72" filterUnits="userSpaceOnUse" color-interpolation-filters="sRGB">
<feFlood flood-opacity="0" result="BackgroundImageFix"/>
<feColorMatrix in="SourceAlpha" type="matrix" values="0 0 0 0 0 0 0 0 0 0 0 0 0 0 0 0 0 0 127 0" result="hardAlpha"/>
<feOffset dy="8"/>
<feGaussianBlur stdDeviation="8"/>
<feComposite in2="hardAlpha" operator="out"/>
<feColorMatrix type="matrix" values="0 0 0 0 0.898039 0 0 0 0 0.466667 0 0 0 0 0.0352941 0 0 0 0.35 0"/>
<feBlend mode="normal" in2="BackgroundImageFix" result="effect1_dropShadow_1_11897"/>
<feBlend mode="normal" in="SourceGraphic" in2="effect1_dropShadow_1_11897" result="shape"/>
</filter>
<linearGradient id="paint0_linear_1_11897" x1="96.5" y1="8" x2="96.5" y2="48" gradientUnits="userSpaceOnUse">
<stop stop-color="#FFB469"/>
<stop offset="1" stop-color="#E57709"/>
</linearGradient>
</defs>
</svg>
