<svg width="105" height="105" viewBox="0 0 105 105" fill="none" xmlns="http://www.w3.org/2000/svg">
<g filter="url(#filter0_d_1_11973)">
<rect x="89" y="81" width="73" height="73" rx="20" transform="rotate(-180 89 81)" fill="url(#paint0_linear_1_11973)"/>
</g>
<path d="M58.625 46.3125C65.6039 46.3125 71.2812 40.6351 71.2812 33.6562C71.2812 26.6774 65.6039 21 58.625 21C51.6461 21 45.9688 26.6774 45.9688 33.6562C45.9688 40.6351 51.6461 46.3125 58.625 46.3125ZM57.2188 26.8839V25.2751C57.2188 24.4977 57.8479 23.8689 58.625 23.8689C59.4021 23.8689 60.0312 24.4977 60.0312 25.2751V26.8997C60.9592 27.2318 61.7719 27.8569 62.278 28.7329C62.668 29.406 62.4373 30.2655 61.7656 30.6541C61.0874 31.0455 60.2305 30.8134 59.8445 30.1421C59.5933 29.7067 59.1263 29.4375 58.625 29.4375C57.849 29.4375 57.2188 30.0677 57.2188 30.8438C57.2188 31.6198 57.849 32.25 58.625 32.25C60.9512 32.25 62.8438 34.1426 62.8438 36.4688C62.8438 38.2998 61.6646 39.8459 60.0312 40.4286V41.9813C60.0312 42.7584 59.4021 43.3876 58.625 43.3876C57.8479 43.3876 57.2188 42.7584 57.2188 41.9813V40.4128C56.2908 40.0803 55.4781 39.4556 54.972 38.5796C54.582 37.9065 54.8127 37.047 55.4844 36.6584C56.1571 36.2629 57.0181 36.4977 57.4055 37.1704C57.6567 37.6058 58.1237 37.875 58.625 37.875C59.401 37.875 60.0312 37.2448 60.0312 36.4688C60.0312 35.6927 59.401 35.0625 58.625 35.0625C56.2988 35.0625 54.4062 33.1699 54.4062 30.8438C54.4062 29.0127 55.5854 27.4666 57.2188 26.8839Z" fill="white"/>
<path d="M75.3605 48.1232C74.3717 47.7339 73.2456 47.9888 72.5205 48.7652C72.5319 48.7535 69.7585 51.6319 65.4592 56.2121C64.7843 56.9716 63.8563 57.4217 62.8438 57.5059C62.568 57.5982 51.7439 57.5623 51.4531 57.5623C50.6654 57.5623 50.0469 56.9434 50.0469 56.1561C50.0469 55.3683 50.6654 54.7498 51.4531 54.7498H61.4375C62.991 54.7498 64.25 53.4904 64.25 51.9373C64.25 50.3839 62.991 49.1248 61.4375 49.1248H53.5343L52.4657 48.1965C48.7391 44.9599 43.1984 44.9599 39.4718 48.1965L38.4032 49.1248H30.4062C29.6295 49.1248 29 49.7543 29 50.5311V61.7811C29 62.5578 29.6295 63.1873 30.4062 63.1873H38.7405C39.5 63.4122 40.2592 63.7498 41.0751 64.0875C43.1562 64.9872 45.519 65.9998 48.8937 65.9998H62.8438C65.0571 65.9998 67.1409 64.9579 68.4688 63.1873L76.1562 53.0623C76.7188 52.331 77 51.459 77 50.5311C76.9996 49.4672 76.3492 48.5129 75.3605 48.1232Z" fill="white"/>
<defs>
<filter id="filter0_d_1_11973" x="0" y="0" width="105" height="105" filterUnits="userSpaceOnUse" color-interpolation-filters="sRGB">
<feFlood flood-opacity="0" result="BackgroundImageFix"/>
<feColorMatrix in="SourceAlpha" type="matrix" values="0 0 0 0 0 0 0 0 0 0 0 0 0 0 0 0 0 0 127 0" result="hardAlpha"/>
<feOffset dy="8"/>
<feGaussianBlur stdDeviation="8"/>
<feComposite in2="hardAlpha" operator="out"/>
<feColorMatrix type="matrix" values="0 0 0 0 0.0392157 0 0 0 0 0.6 0 0 0 0 0.286274 0 0 0 0.3 0"/>
<feBlend mode="normal" in2="BackgroundImageFix" result="effect1_dropShadow_1_11973"/>
<feBlend mode="normal" in="SourceGraphic" in2="effect1_dropShadow_1_11973" result="shape"/>
</filter>
<linearGradient id="paint0_linear_1_11973" x1="89" y1="81" x2="162" y2="154" gradientUnits="userSpaceOnUse">
<stop stop-color="#16A085"/>
<stop offset="1" stop-color="#F4D03F"/>
</linearGradient>
</defs>
</svg>
