<svg width="105" height="105" viewBox="0 0 105 105" fill="none" xmlns="http://www.w3.org/2000/svg">
<g filter="url(#filter0_d_1_11925)">
<rect x="89" y="81" width="73" height="73" rx="20" transform="rotate(-180 89 81)" fill="url(#paint0_linear_1_11925)"/>
</g>
<path d="M53.0003 53.88L53.7203 51H52.2803L53.0003 53.88Z" fill="white"/>
<path d="M42.9999 64.9998H51.9999V58.1198L49.52 48.1998C49.3417 48.1198 49.168 48.0296 48.9999 47.9298V54.2698C49.9566 54.8221 50.2843 56.0453 49.732 57.0019C49.1797 57.9585 47.9566 58.2863 47 57.734C46.0433 57.1817 45.7156 55.9586 46.2679 55.0019C46.4434 54.6979 46.6958 54.4454 47 54.2698V46.3599L45.33 47.3599C44.632 47.7883 44.0213 48.3447 43.53 48.9999C42.8302 49.8735 42.3501 50.9023 42.13 51.9999C42.0468 52.4451 42.0033 52.8969 42 53.3499V63.9999C42 64.5521 42.4477 64.9998 42.9999 64.9998Z" fill="white"/>
<path d="M64.0002 63.9997V53.3497C64.0002 49.814 61.7962 48.1486 60.6702 47.4097L59.0002 46.4097V53.2297C60.179 53.6461 60.9758 54.7499 61.0002 55.9997V58.9997C61.0002 59.552 60.5525 59.9998 60.0002 59.9998C59.4479 59.9998 59.0002 59.552 59.0002 58.9997V55.9997C59.0002 55.4474 58.5524 54.9997 58.0001 54.9997C57.4478 54.9997 57.0001 55.4474 57.0001 55.9997V58.9997C57.0001 59.552 56.5523 59.9998 56.0001 59.9998C55.4478 59.9998 55 59.552 55 58.9997V55.9997C55.0036 54.7315 55.8043 53.6024 57 53.1797V47.9297C56.832 48.0296 56.6584 48.1198 56.48 48.1997L54 58.1197V64.9997H63C63.5526 64.9996 64.0002 64.552 64.0002 63.9997Z" fill="white"/>
<path d="M60.8501 42.52C60.8501 42.76 60.1701 44.52 60.1001 44.6901L61.6301 45.6301L60.8501 42.52Z" fill="white"/>
<path d="M65 42.9297C64.3368 43.0254 63.6632 43.0254 63 42.9297L64 46.8797L65 42.9297Z" fill="white"/>
<path d="M71.6701 41.3896L70.0001 40.3296C69.2442 41.1931 68.3045 41.8765 67.2501 42.3296L65.3501 49.9196C65.8127 51.0074 66.0507 52.1774 66.0501 53.3595V58.9995H74.0501C74.6024 58.9995 75.0501 58.5518 75.0501 57.9995V47.3495C75.0275 44.9127 73.7498 42.6598 71.6701 41.3896Z" fill="white"/>
<path d="M67.37 39.9999C68.8867 38.7574 69.8354 36.9535 70 34.9999C66.68 34.9999 65.2 33.7599 64.55 32.6699C63.5412 33.411 62.4294 34.0006 61.25 34.42C61.7443 35.5488 61.9997 36.7676 62 38C62 38 62 40.43 61.93 40.63C63.7537 41.1673 65.7175 40.9399 67.37 39.9999Z" fill="white"/>
<path d="M71 32.9999V31.9999C70.9934 28.1339 67.8541 25.0052 63.9881 25.0117C62.9843 25.0134 61.9924 25.2311 61.08 25.6498C59.3399 26.6463 57.9949 28.2102 57.27 30.0798C58.3618 30.823 59.3681 31.6849 60.27 32.6497C61.8712 32.0602 63.3544 31.1899 64.65 30.0798C65.1673 29.8864 65.7435 30.149 65.9368 30.6664C65.9768 30.7731 65.998 30.8858 66 30.9998C66 31.2698 66.3101 32.9998 70.0001 32.9998H71V32.9999Z" fill="white"/>
<path d="M58.9102 40.9999C54.6802 40.9999 52.2202 39.5599 51.0502 38.5898C50.0221 40.0975 48.3152 40.9997 46.4902 40.9999C46.7975 44.3563 49.6299 46.9148 53.0002 46.8799C57.1002 46.8799 58.9102 42.7399 58.9102 40.9999Z" fill="white"/>
<path d="M49.8501 36.9997C49.9432 36.7079 50.2045 36.502 50.5101 36.4797C50.7479 36.4482 50.9834 36.5524 51.1201 36.7497C51.2101 36.8596 53.1801 39.3297 58.4301 39.3297H59.1501V36.4297C59.1445 33.2635 56.5762 30.6997 53.41 30.6997H52C48.8377 30.7052 46.2756 33.2674 46.27 36.4297V39.2997H47.0001C48.3522 39.2424 49.5085 38.3092 49.8501 36.9997Z" fill="white"/>
<path d="M45.1501 42.52C45.1501 42.76 45.8301 44.52 45.9001 44.6901L44.3701 45.6301L45.1501 42.52Z" fill="white"/>
<path d="M41 42.9297C41.6632 43.0254 42.3368 43.0254 43 42.9297L41.9999 46.8797L41 42.9297Z" fill="white"/>
<path d="M34.33 41.39L36.05 40.3301C36.8059 41.1936 37.7456 41.877 38.8 42.33L40.7 49.92C40.2375 51.0079 39.9994 52.1779 40 53.36V59H32C31.4478 59 31 58.5523 31 58V47.35C31.0118 44.9231 32.2694 42.6722 34.33 41.39Z" fill="white"/>
<path d="M38.63 39.9999C37.1133 38.7574 36.1645 36.9535 36 34.9999C39.32 34.9999 40.8 33.7599 41.45 32.6699C42.4588 33.411 43.5705 34.0006 44.75 34.42C44.2556 35.5488 44.0002 36.7676 44 38C44 38 44 40.43 44.07 40.63C42.2463 41.1673 40.2825 40.9399 38.63 39.9999Z" fill="white"/>
<path d="M35 32.9999V31.9999C35.0066 28.1339 38.1459 25.0052 42.0118 25.0117C43.0157 25.0134 44.0076 25.2311 44.92 25.6498C46.6601 26.6463 48.0051 28.2102 48.73 30.0798C47.6382 30.823 46.6319 31.6849 45.73 32.6497C44.1288 32.0602 42.6456 31.1899 41.35 30.0798C40.8327 29.8864 40.2565 30.149 40.0632 30.6664C40.0232 30.7731 40.0019 30.8858 40 30.9998C40 31.2698 39.6899 32.9998 35.9999 32.9998H35V32.9999Z" fill="white"/>
<defs>
<filter id="filter0_d_1_11925" x="0" y="0" width="105" height="105" filterUnits="userSpaceOnUse" color-interpolation-filters="sRGB">
<feFlood flood-opacity="0" result="BackgroundImageFix"/>
<feColorMatrix in="SourceAlpha" type="matrix" values="0 0 0 0 0 0 0 0 0 0 0 0 0 0 0 0 0 0 127 0" result="hardAlpha"/>
<feOffset dy="8"/>
<feGaussianBlur stdDeviation="8"/>
<feComposite in2="hardAlpha" operator="out"/>
<feColorMatrix type="matrix" values="0 0 0 0 0.0392157 0 0 0 0 0.6 0 0 0 0 0.286274 0 0 0 0.3 0"/>
<feBlend mode="normal" in2="BackgroundImageFix" result="effect1_dropShadow_1_11925"/>
<feBlend mode="normal" in="SourceGraphic" in2="effect1_dropShadow_1_11925" result="shape"/>
</filter>
<linearGradient id="paint0_linear_1_11925" x1="89" y1="81" x2="162" y2="154" gradientUnits="userSpaceOnUse">
<stop stop-color="#16A085"/>
<stop offset="1" stop-color="#F4D03F"/>
</linearGradient>
</defs>
</svg>
