<svg width="105" height="105" viewBox="0 0 105 105" fill="none" xmlns="http://www.w3.org/2000/svg">
<g filter="url(#filter0_d_1_11960)">
<rect x="89" y="81" width="73" height="73" rx="20" transform="rotate(-180 89 81)" fill="url(#paint0_linear_1_11960)"/>
</g>
<path d="M68.5289 35.6687C68.849 35.4127 68.9032 34.9497 68.6471 34.6296C68.396 34.3095 67.9331 34.2553 67.613 34.5114C67.5293 34.5754 66.244 35.6095 65.2295 37.471L66.239 38.7662C67.1352 36.8064 68.4993 35.6885 68.5289 35.6687Z" fill="white"/>
<path d="M75.3445 43.6123C74.3104 42.9278 72.5031 41.9822 70.5529 42.1546C68.4008 42.3466 66.6477 43.8437 65.8302 44.6809C65.5347 43.6172 65.4264 42.5683 65.5101 41.5439C65.3624 41.5883 65.2048 41.608 65.0472 41.608H64.9881L64.0327 41.5489C63.8653 43.9571 64.5794 46.4243 66.17 48.9112C65.0964 49.2904 62.9148 50.2704 61.8264 52.2156C60.8661 53.9244 60.9844 55.9583 61.1862 57.1845C61.2847 57.7952 61.92 58.1547 62.4962 57.9183C63.6485 57.4505 65.446 56.4902 66.4013 54.7814C67.2532 53.2646 67.2582 51.4819 67.1006 50.2458C67.465 50.7284 67.8689 51.2159 68.3022 51.6986C68.45 51.861 68.6519 51.9448 68.8537 51.9448C69.0261 51.9448 69.2034 51.8807 69.3462 51.7576C69.6516 51.4818 69.6761 51.019 69.4053 50.7136C67.9673 49.1082 66.9233 47.5175 66.2733 45.9565C67.3173 46.641 69.0951 47.5471 71.0107 47.3797C72.9609 47.2123 74.5761 45.9713 75.4774 45.1143C75.9256 44.6858 75.8616 43.957 75.3445 43.6123Z" fill="white"/>
<path d="M51.982 37.6885C49.6867 33.2997 48.7883 28.72 49.3142 24.0522C46.9976 24.6567 45.94 25.9947 46.0036 28.2064C46.0377 29.4306 45.6116 30.6391 44.8042 31.6104C43.3653 33.342 42.5962 35.0789 42.4971 36.7781C44.2662 38.5358 46.3426 40.1842 48.7552 41.7236L51.982 37.6885Z" fill="white"/>
<path d="M65.0381 40.1318C65.1401 40.1352 65.1881 40.0813 65.2142 40.0325C65.2401 39.9835 65.2584 39.9085 65.1968 39.8291L63.2087 37.275C63.0774 37.1064 63.0255 36.8893 63.0663 36.6798C63.0716 36.6529 63.0783 36.6233 63.0808 36.5964C63.3924 34.6217 62.1902 33.3579 61.0672 32.862C59.9303 32.3602 58.1639 32.3227 56.9275 33.8698L50.0266 42.4993C50.1693 42.5843 50.3038 42.672 50.4486 42.7564C50.8011 42.9617 50.9204 43.4141 50.7151 43.7666C50.5098 44.1194 50.0562 44.2379 49.7051 44.0327C49.3346 43.8168 48.9816 43.5952 48.6242 43.3751C48.5662 43.3498 48.5099 43.3195 48.4581 43.2781C48.4539 43.2748 48.451 43.2706 48.447 43.2672C39.9975 38.0149 35.2144 31.5426 33.8867 23.5347C31.4513 24.9493 30.7098 26.7881 31.5528 29.2606C31.9533 30.4343 31.8802 31.7441 31.3464 32.9486C29.4137 37.3117 29.972 40.8068 33.0538 43.6341C33.7915 44.311 34.319 45.2312 34.5403 46.2255C35.5223 50.6437 38.3295 52.7278 43.1044 52.608C43.5195 52.5884 43.8513 52.9195 43.8618 53.3275C43.8724 53.7353 43.5507 54.0744 43.1429 54.0849C42.9962 54.0887 42.8505 54.0907 42.7067 54.0907C42.0577 54.0907 41.4403 54.0514 40.8532 53.9744L34.5446 61.8611C34.0228 62.5123 33.8521 63.3817 34.0877 64.1875C34.3147 64.9635 34.8745 65.5535 35.6233 65.8067C38.9681 66.9372 42.738 66.612 46.8277 64.8389C47.8242 64.4053 48.419 63.3779 48.3075 62.282L48.0708 59.8914C47.9324 58.5275 48.873 57.2855 50.2128 57.0658C54.0376 56.4375 56.9226 54.8113 58.5553 52.3631C60.1582 49.9597 60.5535 46.7744 59.6989 43.1511C59.5104 42.3504 59.7071 41.5289 60.239 40.8971C60.7772 40.258 61.564 39.9215 62.3973 39.9689L65.0381 40.1318ZM59.7676 37.1271C59.2025 37.1271 58.7505 36.6709 58.7505 36.1059C58.7505 35.5451 59.2025 35.0888 59.7676 35.0888C60.3285 35.0888 60.7847 35.5451 60.7847 36.1059C60.7847 36.6708 60.3285 37.1271 59.7676 37.1271Z" fill="white"/>
<defs>
<filter id="filter0_d_1_11960" x="0" y="0" width="105" height="105" filterUnits="userSpaceOnUse" color-interpolation-filters="sRGB">
<feFlood flood-opacity="0" result="BackgroundImageFix"/>
<feColorMatrix in="SourceAlpha" type="matrix" values="0 0 0 0 0 0 0 0 0 0 0 0 0 0 0 0 0 0 127 0" result="hardAlpha"/>
<feOffset dy="8"/>
<feGaussianBlur stdDeviation="8"/>
<feComposite in2="hardAlpha" operator="out"/>
<feColorMatrix type="matrix" values="0 0 0 0 0.0392157 0 0 0 0 0.6 0 0 0 0 0.286274 0 0 0 0.3 0"/>
<feBlend mode="normal" in2="BackgroundImageFix" result="effect1_dropShadow_1_11960"/>
<feBlend mode="normal" in="SourceGraphic" in2="effect1_dropShadow_1_11960" result="shape"/>
</filter>
<linearGradient id="paint0_linear_1_11960" x1="89" y1="81" x2="162" y2="154" gradientUnits="userSpaceOnUse">
<stop stop-color="#16A085"/>
<stop offset="1" stop-color="#F4D03F"/>
</linearGradient>
</defs>
</svg>
