<svg width="107" height="275" viewBox="0 0 107 275" fill="none" xmlns="http://www.w3.org/2000/svg">
<path opacity="0.7" d="M58.2578 185.489C56.4747 185.489 55.0288 184.043 55.0288 182.255C55.0288 180.468 56.4747 179.022 58.2578 179.022C60.0452 179.022 61.491 180.468 61.491 182.255C61.491 184.043 60.041 185.489 58.2578 185.489Z" fill="#FFC700"/>
<path opacity="0.7" d="M58.2578 215.325C56.4747 215.325 55.0288 213.88 55.0288 212.092C55.0288 210.309 56.4747 208.859 58.2578 208.859C60.0452 208.859 61.491 210.305 61.491 212.092C61.491 213.875 60.041 215.325 58.2578 215.325Z" fill="#FFC700"/>
<path opacity="0.7" d="M58.2578 245.162C56.4747 245.162 55.0288 243.716 55.0288 241.929C55.0288 240.146 56.4747 238.696 58.2578 238.696C60.0452 238.696 61.491 240.142 61.491 241.929C61.491 243.712 60.041 245.162 58.2578 245.162Z" fill="#FFC700"/>
<path opacity="0.7" d="M58.2578 275C56.4747 275 55.0288 273.554 55.0288 271.766C55.0288 269.983 56.4747 268.533 58.2578 268.533C60.0452 268.533 61.491 269.979 61.491 271.766C61.491 273.55 60.041 275 58.2578 275Z" fill="#FFC700"/>
<path opacity="0.7" d="M85.6331 185.489C83.8499 185.489 82.4041 184.043 82.4041 182.255C82.4041 180.468 83.8499 179.022 85.6331 179.022C87.4204 179.022 88.8664 180.468 88.8664 182.255C88.8664 184.043 87.4204 185.489 85.6331 185.489Z" fill="#FFC700"/>
<path opacity="0.7" d="M85.6331 215.325C83.8499 215.325 82.4041 213.88 82.4041 212.092C82.4041 210.309 83.8499 208.859 85.6331 208.859C87.4204 208.859 88.8664 210.305 88.8664 212.092C88.8664 213.875 87.4204 215.325 85.6331 215.325Z" fill="#FFC700"/>
<path opacity="0.7" d="M85.6331 245.162C83.8499 245.162 82.4041 243.716 82.4041 241.929C82.4041 240.146 83.8499 238.696 85.6331 238.696C87.4204 238.696 88.8664 240.142 88.8664 241.929C88.8664 243.712 87.4204 245.162 85.6331 245.162Z" fill="#FFC700"/>
<path opacity="0.7" d="M85.6331 275C83.8499 275 82.4041 273.554 82.4041 271.766C82.4041 269.983 83.8499 268.533 85.6331 268.533C87.4204 268.533 88.8664 269.979 88.8664 271.766C88.8664 273.55 87.4204 275 85.6331 275Z" fill="#FFC700"/>
<path opacity="0.7" d="M58.2578 95.9773C56.4747 95.9773 55.0288 94.5314 55.0288 92.744C55.0288 90.9609 56.4747 89.5107 58.2578 89.5107C60.0452 89.5107 61.491 90.9566 61.491 92.744C61.491 94.5314 60.041 95.9773 58.2578 95.9773Z" fill="#FFC700"/>
<path opacity="0.7" d="M58.2578 125.814C56.4747 125.814 55.0288 124.368 55.0288 122.581C55.0288 120.798 56.4747 119.348 58.2578 119.348C60.0452 119.348 61.491 120.794 61.491 122.581C61.491 124.368 60.041 125.814 58.2578 125.814Z" fill="#FFC700"/>
<path opacity="0.7" d="M58.2578 155.651C56.4747 155.651 55.0288 154.205 55.0288 152.418C55.0288 150.635 56.4747 149.185 58.2578 149.185C60.0452 149.185 61.491 150.63 61.491 152.418C61.491 154.205 60.041 155.651 58.2578 155.651Z" fill="#FFC700"/>
<path opacity="0.7" d="M85.6331 95.9773C83.8499 95.9773 82.4041 94.5314 82.4041 92.744C82.4041 90.9609 83.8499 89.5107 85.6331 89.5107C87.4204 89.5107 88.8664 90.9566 88.8664 92.744C88.8664 94.5314 87.4204 95.9773 85.6331 95.9773Z" fill="#FFC700"/>
<path opacity="0.7" d="M85.6331 125.814C83.8499 125.814 82.4041 124.368 82.4041 122.581C82.4041 120.798 83.8499 119.348 85.6331 119.348C87.4204 119.348 88.8664 120.794 88.8664 122.581C88.8664 124.368 87.4204 125.814 85.6331 125.814Z" fill="#FFC700"/>
<path opacity="0.7" d="M85.6331 155.651C83.8499 155.651 82.4041 154.205 82.4041 152.418C82.4041 150.635 83.8499 149.185 85.6331 149.185C87.4204 149.185 88.8664 150.63 88.8664 152.418C88.8664 154.205 87.4204 155.651 85.6331 155.651Z" fill="#FFC700"/>
<path opacity="0.7" d="M3.52424 185.489C1.7411 185.489 0.291016 184.043 0.291016 182.255C0.291016 180.468 1.73689 179.022 3.52424 179.022C5.3116 179.022 6.75757 180.472 6.75757 182.255C6.75757 184.038 5.3116 185.489 3.52424 185.489Z" fill="#FFC700"/>
<path opacity="0.7" d="M3.52424 215.325C1.7411 215.325 0.291016 213.88 0.291016 212.092C0.291016 210.309 1.73689 208.859 3.52424 208.859C5.3116 208.859 6.75757 210.305 6.75757 212.092C6.75757 213.875 5.3116 215.325 3.52424 215.325Z" fill="#FFC700"/>
<path opacity="0.7" d="M3.52424 245.162C1.7411 245.162 0.291016 243.716 0.291016 241.929C0.291016 240.146 1.73689 238.696 3.52424 238.696C5.3116 238.696 6.75757 240.142 6.75757 241.929C6.75757 243.712 5.3116 245.162 3.52424 245.162Z" fill="#FFC700"/>
<path opacity="0.7" d="M3.52424 275C1.7411 275 0.291016 273.554 0.291016 271.766C0.291016 269.983 1.73689 268.533 3.52424 268.533C5.3116 268.533 6.75757 269.979 6.75757 271.766C6.75757 273.55 5.3116 275 3.52424 275Z" fill="#FFC700"/>
<path opacity="0.7" d="M30.9037 185.489C29.1205 185.489 27.6746 184.043 27.6746 182.255C27.6746 180.468 29.1205 179.022 30.9037 179.022C32.691 179.022 34.1369 180.468 34.1369 182.255C34.1369 184.043 32.6868 185.489 30.9037 185.489Z" fill="#FFC700"/>
<path opacity="0.7" d="M30.9037 215.325C29.1205 215.325 27.6746 213.88 27.6746 212.092C27.6746 210.309 29.1205 208.859 30.9037 208.859C32.691 208.859 34.1369 210.305 34.1369 212.092C34.1369 213.875 32.6868 215.325 30.9037 215.325Z" fill="#FFC700"/>
<path opacity="0.7" d="M30.9037 245.162C29.1205 245.162 27.6746 243.716 27.6746 241.929C27.6746 240.146 29.1205 238.696 30.9037 238.696C32.691 238.696 34.1369 240.142 34.1369 241.929C34.1369 243.712 32.6868 245.162 30.9037 245.162Z" fill="#FFC700"/>
<path opacity="0.7" d="M30.9037 275C29.1205 275 27.6746 273.554 27.6746 271.766C27.6746 269.983 29.1205 268.533 30.9037 268.533C32.691 268.533 34.1369 269.979 34.1369 271.766C34.1369 273.55 32.6868 275 30.9037 275Z" fill="#FFC700"/>
<path opacity="0.7" d="M3.52417 95.9773C1.74103 95.9773 0.295166 94.5314 0.295166 92.744C0.295166 90.9609 1.74103 89.5107 3.52417 89.5107C5.31153 89.5107 6.7575 90.9566 6.7575 92.744C6.7575 94.5314 5.31153 95.9773 3.52417 95.9773Z" fill="#FFC700"/>
<path opacity="0.7" d="M3.52417 125.814C1.74103 125.814 0.295166 124.368 0.295166 122.581C0.295166 120.798 1.74103 119.348 3.52417 119.348C5.31153 119.348 6.7575 120.794 6.7575 122.581C6.7575 124.368 5.31153 125.814 3.52417 125.814Z" fill="#FFC700"/>
<path opacity="0.7" d="M3.52417 155.651C1.74103 155.651 0.295166 154.205 0.295166 152.418C0.295166 150.635 1.74103 149.185 3.52417 149.185C5.31153 149.185 6.7575 150.63 6.7575 152.418C6.7575 154.205 5.31153 155.651 3.52417 155.651Z" fill="#FFC700"/>
<path opacity="0.7" d="M30.9037 95.9773C29.1205 95.9773 27.6746 94.5314 27.6746 92.744C27.6746 90.9609 29.1205 89.5107 30.9037 89.5107C32.691 89.5107 34.1369 90.9566 34.1369 92.744C34.1369 94.5314 32.6868 95.9773 30.9037 95.9773Z" fill="#FFC700"/>
<path opacity="0.7" d="M30.9037 125.814C29.1205 125.814 27.6746 124.368 27.6746 122.581C27.6746 120.798 29.1205 119.348 30.9037 119.348C32.691 119.348 34.1369 120.794 34.1369 122.581C34.1369 124.368 32.6868 125.814 30.9037 125.814Z" fill="#FFC700"/>
<path opacity="0.7" d="M30.9037 155.651C29.1205 155.651 27.6746 154.205 27.6746 152.418C27.6746 150.635 29.1205 149.185 30.9037 149.185C32.691 149.185 34.1369 150.63 34.1369 152.418C34.1369 154.205 32.6868 155.651 30.9037 155.651Z" fill="#FFC700"/>
<path opacity="0.7" d="M58.2578 6.46604C56.4747 6.46604 55.0288 5.02015 55.0288 3.23279C55.0288 1.44965 56.4747 -0.000488281 58.2578 -0.000488281C60.0452 -0.000488281 61.491 1.44543 61.491 3.23279C61.491 5.02015 60.041 6.46604 58.2578 6.46604Z" fill="#FFC700"/>
<path opacity="0.7" d="M58.2578 36.303C56.4747 36.303 55.0288 34.857 55.0288 33.0697C55.0288 31.2823 56.4747 29.8364 58.2578 29.8364C60.0452 29.8364 61.491 31.2823 61.491 33.0697C61.491 34.857 60.041 36.303 58.2578 36.303Z" fill="#FFC700"/>
<path opacity="0.7" d="M58.2578 66.1404C56.4747 66.1404 55.0288 64.6945 55.0288 62.9071C55.0288 61.1198 56.4747 59.6738 58.2578 59.6738C60.0452 59.6738 61.491 61.1198 61.491 62.9071C61.491 64.6945 60.041 66.1404 58.2578 66.1404Z" fill="#FFC700"/>
<path opacity="0.7" d="M85.6331 6.46604C83.8499 6.46604 82.4041 5.02015 82.4041 3.23279C82.4041 1.44965 83.8499 -0.000488281 85.6331 -0.000488281C87.4204 -0.000488281 88.8664 1.44543 88.8664 3.23279C88.8664 5.02015 87.4204 6.46604 85.6331 6.46604Z" fill="#FFC700"/>
<path opacity="0.7" d="M85.6331 36.303C83.8499 36.303 82.4041 34.857 82.4041 33.0697C82.4041 31.2823 83.8499 29.8364 85.6331 29.8364C87.4204 29.8364 88.8664 31.2823 88.8664 33.0697C88.8664 34.857 87.4204 36.303 85.6331 36.303Z" fill="#FFC700"/>
<path opacity="0.7" d="M85.6331 66.1404C83.8499 66.1404 82.4041 64.6945 82.4041 62.9071C82.4041 61.1198 83.8499 59.6738 85.6331 59.6738C87.4204 59.6738 88.8664 61.1198 88.8664 62.9071C88.8664 64.6945 87.4204 66.1404 85.6331 66.1404Z" fill="#FFC700"/>
<path opacity="0.7" d="M3.52417 6.47044C1.74103 6.47044 0.295166 5.02454 0.295166 3.23719C0.295166 1.45404 1.74103 0.00390625 3.52417 0.00390625C5.31153 0.00390625 6.7575 1.44983 6.7575 3.23719C6.7575 5.02033 5.31153 6.47044 3.52417 6.47044Z" fill="#FFC700"/>
<path opacity="0.7" d="M3.52417 36.303C1.74103 36.303 0.295166 34.857 0.295166 33.0697C0.295166 31.2823 1.74103 29.8364 3.52417 29.8364C5.31153 29.8364 6.7575 31.2823 6.7575 33.0697C6.7575 34.857 5.31153 36.303 3.52417 36.303Z" fill="#FFC700"/>
<path opacity="0.7" d="M3.52417 66.1404C1.74103 66.1404 0.295166 64.6945 0.295166 62.9071C0.295166 61.1198 1.74103 59.6738 3.52417 59.6738C5.31153 59.6738 6.7575 61.1198 6.7575 62.9071C6.7575 64.6945 5.31153 66.1404 3.52417 66.1404Z" fill="#FFC700"/>
<path opacity="0.7" d="M30.9037 6.46604C29.1205 6.46604 27.6746 5.02015 27.6746 3.23279C27.6746 1.44965 29.1205 -0.000488281 30.9037 -0.000488281C32.691 -0.000488281 34.1369 1.44543 34.1369 3.23279C34.1369 5.02015 32.6868 6.46604 30.9037 6.46604Z" fill="#FFC700"/>
<path opacity="0.7" d="M30.9037 36.303C29.1205 36.303 27.6746 34.857 27.6746 33.0697C27.6746 31.2823 29.1205 29.8364 30.9037 29.8364C32.691 29.8364 34.1369 31.2823 34.1369 33.0697C34.1369 34.857 32.6868 36.303 30.9037 36.303Z" fill="#FFC700"/>
<path opacity="0.7" d="M30.9037 66.1404C29.1205 66.1404 27.6746 64.6945 27.6746 62.9071C27.6746 61.1198 29.1205 59.6738 30.9037 59.6738C32.691 59.6738 34.1369 61.1198 34.1369 62.9071C34.1369 64.6945 32.6868 66.1404 30.9037 66.1404Z" fill="#FFC700"/>
</svg>
