<svg width="18" height="18" viewBox="0 0 18 18" fill="none" xmlns="http://www.w3.org/2000/svg">
<path fill-rule="evenodd" clip-rule="evenodd" d="M14.8043 12.842L13.8268 11.8645C13.3384 11.3761 12.5468 11.3761 12.0593 11.8645L11.2909 12.6328C11.1193 12.8045 10.8593 12.862 10.6376 12.7645C9.52427 12.277 8.42427 11.5378 7.44344 10.557C6.46677 9.5803 5.7301 8.4853 5.24177 7.37613C5.1401 7.14697 5.19927 6.8778 5.37677 6.7003L6.0651 6.01197C6.62427 5.4528 6.62427 4.66197 6.13594 4.17363L5.15844 3.19613C4.5076 2.5453 3.4526 2.5453 2.80177 3.19613L2.25844 3.73863C1.64094 4.35613 1.38344 5.24697 1.5501 6.1303C1.96177 8.3078 3.22677 10.692 5.2676 12.7328C7.30844 14.7736 9.6926 16.0386 11.8701 16.4503C12.7534 16.617 13.6443 16.3595 14.2618 15.742L14.8043 15.1995C15.4551 14.5486 15.4551 13.4936 14.8043 12.842V12.842Z" stroke="#E57709" stroke-width="1.5" stroke-linecap="round" stroke-linejoin="round"/>
<path d="M9.8335 4.82599C10.6927 4.81433 11.556 5.13266 12.2118 5.78849" stroke="#E57709" stroke-width="1.5" stroke-linecap="round" stroke-linejoin="round"/>
<path d="M14.5685 3.43188C13.261 2.12438 11.5468 1.47021 9.8335 1.47021" stroke="#E57709" stroke-width="1.5" stroke-linecap="round" stroke-linejoin="round"/>
<path d="M13.1744 8.16691C13.1861 7.30774 12.8677 6.44441 12.2119 5.78857" stroke="#E57709" stroke-width="1.5" stroke-linecap="round" stroke-linejoin="round"/>
<path d="M14.5684 3.43164C15.8759 4.73914 16.53 6.45331 16.53 8.16664" stroke="#E57709" stroke-width="1.5" stroke-linecap="round" stroke-linejoin="round"/>
</svg>
